<svg fill="#000000" viewBox="0 0 32 32" id="icon" xmlns="http://www.w3.org/2000/svg"><g id="SVGRepo_bgCarrier" stroke-width="0"></g><g id="SVGRepo_tracerCarrier" stroke-linecap="round" stroke-linejoin="round"></g><g id="SVGRepo_iconCarrier"> <defs> <style> .cls-1 { fill: none; } </style> </defs> <path d="M16,30A14.0158,14.0158,0,0,1,2,16H4A12,12,0,1,0,16,4V2a14,14,0,0,1,0,28Z"></path> <path d="M16,26A10.0115,10.0115,0,0,1,6,16H8a8,8,0,1,0,8-8V6a10,10,0,0,1,0,20Z"></path> <path d="M16,22a6.0069,6.0069,0,0,1-6-6h2a4,4,0,1,0,4-4V10a6,6,0,0,1,0,12Z"></path> <rect id="_Transparent_Rectangle_" data-name="&lt;Transparent Rectangle&gt;" class="cls-1" width="32" height="32"></rect> </g></svg>