<svg width="33" height="32" viewBox="0 0 33 32" fill="none" xmlns="http://www.w3.org/2000/svg">
<path d="M10.3042 30.4063L10.3001 28.8088L3.91813 28.8006L3.91401 25.6096L3.90996 22.4186L2.31241 22.4145L0.714844 22.4103V9.59752L2.31241 9.59333L3.90996 9.58922L3.91401 6.39824L3.91813 3.20726L10.3001 3.19901L10.3042 1.60147L10.3084 0.00390625H23.1213L23.1254 1.60147L23.1296 3.19901L29.5116 3.20726L29.5198 9.58922L31.1173 9.59333L32.7148 9.59752V22.4103L31.1173 22.4145L29.5198 22.4186L29.5116 28.8006L23.1296 28.8088L23.1254 30.4063L23.1213 32.0039H10.3084L10.3042 30.4063ZM23.1174 23.9999L23.1215 22.4106L24.7109 22.4065L26.3002 22.4023L26.3084 20.8088L26.3165 19.2153L27.91 19.2072L29.5035 19.199V12.8088L27.91 12.8006L26.3165 12.7925L26.3084 11.199L26.3002 9.60554L24.7109 9.60135L23.1215 9.59724L23.1174 8.00793L23.1132 6.41861L19.9141 6.41449L16.7148 6.41036V9.59737H18.2981C19.6123 9.59737 19.8846 9.60114 19.8999 9.61959C19.9133 9.63576 19.9172 10.0667 19.9141 11.2171L19.91 12.7925L11.9181 12.8006L3.92621 12.8088V19.199L11.9181 19.2072L19.91 19.2153L19.9141 20.7907C19.9172 21.9411 19.9133 22.3721 19.8999 22.3882C19.8846 22.4067 19.6123 22.4104 18.2981 22.4104H16.7148V25.5974L19.9141 25.5933L23.1132 25.5892L23.1174 23.9999Z" fill="white"/>
</svg>
