<svg width="2733" height="923" viewBox="0 0 2733 923" fill="none" xmlns="http://www.w3.org/2000/svg">
<mask id="path-1-outside-1_837_360" maskUnits="userSpaceOnUse" x="0" y="0" width="2733" height="923" fill="black">
<rect fill="white" width="2733" height="923"/>
<path d="M1261.91 83.5205C1261.91 96.4521 1258.7 109.35 1253.56 121.844L1253.44 122.126L1253.32 122.404C1253.16 122.77 1253 123.135 1252.83 123.498H1361.08V123.51H1560.64V168.804C1564.05 165.528 1567.59 162.373 1571.27 159.345C1603.98 131.851 1644.89 119.043 1691.74 119.043H1719.66V123.505H1881.81V409.606C1881.81 439.634 1889.26 458.883 1900.48 471.262C1911.72 483.664 1927 490.68 1949.48 490.68C1964.88 490.68 1976.29 486.91 1985.16 480.628C1995.02 473.645 2002.94 464.062 2008.81 451.039C2014.53 437.748 2017.83 421.759 2018.04 402.55L2018.04 400.673V123.505H2223.97V151.413H2383.69L2479.9 290.489L2561.47 151.413H2724.96L2607.04 328.813H2655.73V454.778H2593.54L2728.53 649.912H2559.68L2463.11 510.312L2382.8 649.912H2223.57C2222.13 680.632 2216.76 710.355 2207.4 739C2196.11 773.511 2178.47 804.491 2154.57 831.733C2130.71 859.622 2100.38 881.31 2064.27 897.064C2027.15 913.264 1983.84 920.836 1935.18 920.836C1892.27 920.836 1851.99 913.794 1814.6 899.404L1812.86 898.743C1776.33 884.758 1744.46 863.583 1717.54 835.354L1717.54 835.348L1717.53 835.342C1690.63 807.095 1670.75 773.064 1657.66 733.793L1648.89 707.47L1675.16 698.534L1803.63 654.835C1796.8 651.786 1790.12 648.374 1783.6 644.591L1783.31 644.424L1783.03 644.25C1749.25 623.57 1722.91 594.648 1704.03 558.249L1703.89 557.977L1703.76 557.7C1685.45 520.401 1676.78 477.617 1676.78 430.153V330.072C1674.52 329.766 1672.33 329.506 1670.2 329.293C1665.17 328.789 1660.14 328.538 1655.11 328.538C1637.84 328.538 1622.45 332.678 1608.38 340.844L1608.09 341.016L1607.79 341.18C1594.38 348.532 1583.09 359.727 1574.07 375.882L1573.98 376.037L1573.89 376.192C1565.62 390.561 1560.64 409.853 1560.64 435.519V677.845H1353.83V658.894C1340.92 665.293 1327.44 670.828 1313.4 675.507L1313.09 675.609L1312.78 675.705C1294.22 681.417 1274.12 684.086 1252.76 684.086C1192.92 684.086 1142.79 667.708 1106.85 631.041L1106.76 630.942L1106.66 630.843C1070.92 593.639 1055.1 541.932 1055.1 480.175V301.725H1026.47L1006.03 307.073L886.504 338.359C908.666 344.619 929.873 352.939 950.089 363.336C974.981 376.138 995.494 394.1 1011.25 417.015C1028.42 441.985 1035.81 472.708 1035.81 506.98C1035.81 541.348 1025.67 572.724 1005.48 600.199C985.927 627.625 958.328 648.35 924.258 663.047L924.045 663.139L923.83 663.228C889.353 677.424 849.854 684.091 805.996 684.091C766.738 684.091 730.038 677.97 696.192 665.36L696.107 665.329L696.022 665.296C662.973 652.737 634.493 634.929 611.155 611.592L611.013 611.448L610.871 611.304C600.31 600.432 591.056 588.794 583.136 576.408V677.837H481.068C451.989 677.837 425.63 669.705 405.489 650.44L405.265 650.226L405.046 650.006C397.559 642.519 391.663 634.139 387.212 625.049C379.271 633.54 370.481 641.321 360.832 648.356L360.789 648.388L360.746 648.418C327.502 672.467 288.575 684.091 245.22 684.091C196.619 684.091 152.85 671.346 114.999 645.194L114.9 645.126L114.802 645.057C78.3868 619.431 50.3265 585.147 30.5469 542.951L30.4365 542.715L30.3301 542.477C11.2551 499.722 2.00006 452.291 2 400.67C2.00002 349.591 11.2743 302.468 30.3301 259.757L30.4033 259.595L30.4775 259.433C50.2258 216.645 78.2854 181.98 114.802 156.283L114.999 156.146C152.851 129.995 196.619 117.249 245.22 117.249C288.635 117.249 327.573 129.208 360.771 153.832C366.231 157.714 371.414 161.848 376.321 166.226V123.503H583.136V223.187C585.934 217.814 589.048 212.551 592.479 207.404L592.616 207.2L592.755 206.999C612.028 179.16 639.015 157.472 672.417 141.439L672.514 141.393L672.611 141.348C707.632 124.867 748.855 117.249 795.275 117.249C834.38 117.249 869.93 123.325 901.328 136.259L901.329 136.258C930.416 148.016 955.365 164.372 975.589 185.572V123.498H1042.82C1049.42 123.498 1052.74 121.665 1055.24 119.168C1057.73 116.67 1059.57 113.347 1059.57 106.747V2H1261.91V83.5205ZM1719.66 337.645L1704.7 334.924V430.153L1704.7 432.215C1704.95 475.425 1712.99 513.153 1728.82 545.398C1745.49 577.559 1768.42 602.573 1797.61 620.44C1826.92 637.442 1860.27 646.076 1897.67 646.342L1899.45 646.349C1918.49 646.349 1937.25 643.274 1955.73 637.126L1957.52 636.521C1976.58 629.97 1993.85 618.654 2009.33 602.573C2024.43 586.918 2036.64 565.488 2045.96 538.285V632.948L2045.96 634.812C2045.64 673.836 2035.52 704.78 2015.59 727.645L2014.66 728.753C1995.03 751.837 1966.45 763.38 1928.93 763.38L1927.59 763.374C1900.04 763.131 1876.97 755.341 1858.36 740.007L1857.46 739.259C1839 723.774 1825 704.12 1815.47 680.297L1684.15 724.965C1696.06 760.699 1713.93 791.074 1737.75 816.088C1762.17 841.698 1791.05 860.757 1824.41 873.264C1858.36 886.366 1895.28 892.918 1935.18 892.918C1980.33 892.918 2019.12 885.992 2051.57 872.142L2053.11 871.478C2085.87 857.184 2112.67 837.827 2133.51 813.408C2154.62 789.371 2170.24 762.16 2180.38 731.774L2180.86 730.325C2190.67 700.323 2195.73 668.923 2196.03 636.126L2196.05 632.948V151.423H2045.96V400.673C2045.96 423.9 2042.09 444.447 2034.35 462.314C2026.61 479.586 2015.59 493.284 2001.29 503.409L2000.62 503.881C1986.46 513.692 1969.41 518.597 1949.48 518.597C1920.75 518.597 1897.79 509.363 1880.61 490.896L1879.8 490.009C1862.79 471.248 1854.16 444.985 1853.89 411.22L1853.89 409.606V151.423H1719.66V337.645ZM2018.04 632.807C2002.63 646.258 1985.48 656.431 1966.59 662.923C1944.69 670.452 1922.27 674.267 1899.45 674.267C1878.88 674.267 1859.16 671.999 1840.38 667.393L1841.39 669.928C1849.08 689.14 1859.99 704.545 1874.03 716.702L1875.4 717.868L1875.43 717.895L1875.46 717.922C1888.76 729.137 1905.91 735.462 1928.93 735.462C1960.85 735.462 1980.93 725.789 1994.05 709.879L1994.29 709.586L1994.54 709.299C2009.19 692.504 2018.04 668.141 2018.04 632.948V632.807ZM245.22 145.167C201.743 145.167 163.625 156.483 130.868 179.115C98.7072 201.747 73.6924 232.42 55.8252 271.132L55.0225 272.95C38.2865 311.195 29.918 353.768 29.918 400.67C29.918 448.911 38.5536 492.389 55.8252 531.102C73.6925 569.218 98.7071 599.594 130.868 622.226C163.113 644.504 200.553 655.817 243.186 656.165L245.22 656.173C282.741 656.173 315.357 646.362 343.067 626.74L344.384 625.799C372.971 604.954 392.923 576.365 404.239 540.035V573.983C404.239 597.806 411.088 616.567 424.786 630.266C438.27 643.163 456.66 649.713 479.955 649.915L481.068 649.92H555.218V512.954L550.867 499.903L555.218 498.927V151.421H404.239V262.198C392.923 225.273 372.971 196.684 344.384 176.435C316.829 155.915 284.368 145.495 247.003 145.175L245.22 145.167ZM795.275 145.167C751.798 145.167 714.872 152.314 684.498 166.607C654.719 180.901 631.79 199.662 615.709 222.89L614.988 223.98C599.984 246.927 592.481 272.472 592.481 300.613L592.486 302.005C592.688 331.144 599.238 354.801 612.136 372.976C625.238 391.438 642.213 406.031 663.058 416.751C683.903 426.876 705.94 434.618 729.167 439.979C752.394 445.339 774.43 450.4 795.275 455.165C816.716 459.93 833.988 465.886 847.091 473.033C860.193 479.585 866.745 489.709 866.745 503.407L866.741 503.937C866.576 515.03 861.217 524.681 850.664 532.889C839.944 540.631 824.756 544.502 805.103 544.502C784.853 544.502 767.581 539.737 753.287 530.208C739.589 520.083 730.655 506.385 726.486 489.113L587.121 520.381C596.055 547.182 610.647 571.005 630.896 591.851C651.146 612.1 676.161 627.883 705.939 639.199C736.314 650.515 769.666 656.173 805.996 656.173C847.091 656.173 882.826 649.919 913.2 637.412C943.574 624.309 966.802 606.442 982.883 583.811C999.298 561.532 1007.63 536.368 1007.89 508.318L1007.9 506.98C1007.9 477.081 1001.55 452.663 988.853 433.729L988.243 432.831C975.345 414.071 958.696 399.35 938.296 388.669L937.321 388.163C916.476 377.443 894.439 369.104 871.212 363.148C849.436 357.007 828.707 351.65 809.025 347.078L805.103 346.175C784.257 341.41 767.283 335.454 754.181 328.308C741.078 320.565 734.527 310.142 734.526 297.039C734.526 285.5 738.999 276.197 747.941 269.129L748.82 268.452C758.35 261.305 772.644 257.731 791.702 257.731L793.645 257.746C813.586 258.053 829.614 263.111 841.73 272.919C854.237 283.044 862.278 297.04 865.852 314.907L975.589 286.184V229.335C970.816 222.331 965.505 215.716 959.655 209.489C941.788 189.24 918.858 173.457 890.866 162.141C863.47 150.825 831.606 145.167 795.275 145.167ZM1087.48 106.747C1087.48 119.85 1083.31 130.571 1074.98 138.909C1066.64 147.247 1055.92 151.416 1042.82 151.416H1003.51V221.099C1013.16 236.795 1020.6 253.955 1025.83 272.473L1026.21 273.808H1083.02V480.175C1083.02 537.35 1097.61 581.125 1126.79 611.5C1155.52 640.814 1196.65 655.699 1250.2 656.157L1252.76 656.169C1271.82 656.169 1289.09 653.786 1304.57 649.021C1320.15 643.829 1334.89 637.518 1348.79 630.09L1350.13 629.367L1312.61 518.59C1307.85 521.568 1302.79 523.951 1297.42 525.737C1292.66 526.928 1287.3 527.523 1281.34 527.523C1268.24 527.523 1256.93 523.652 1247.4 515.91C1238.74 507.833 1234.28 496.96 1234.01 483.293L1234 481.962V273.808H1333.16V151.416H1177.71C1189.63 149.034 1199.75 144.269 1208.09 137.122C1216.74 129.622 1223.16 121.283 1227.34 112.105L1227.74 111.215C1231.78 101.407 1233.86 92.4362 1233.99 84.3047L1234 83.5205V29.918H1087.48V106.747ZM1676.78 147.47C1641.79 149.899 1612.53 161.046 1589 180.909C1562.2 202.946 1543.44 233.32 1532.72 272.032V151.428H1381.74V635.667L1384.13 642.705L1381.74 643.996V649.927H1532.72V435.519L1532.73 434.154C1532.9 405.574 1538.56 381.61 1549.7 362.263C1560.84 342.329 1575.44 327.301 1593.5 317.179L1594.36 316.701C1612.83 305.981 1633.08 300.62 1655.11 300.62C1661.07 300.62 1667.02 300.918 1672.98 301.514C1674.23 301.639 1675.5 301.78 1676.78 301.932V147.47ZM2223.97 632.948C2223.97 636.28 2223.92 639.6 2223.83 642.908L2345.24 454.778H2263.54V328.813H2337.56L2223.97 164.6V632.948ZM1261.91 481.962C1261.91 489.245 1263.76 492.709 1265.84 494.896C1269.87 497.906 1274.66 499.605 1281.34 499.605C1284.89 499.605 1287.62 499.298 1289.68 498.873C1292.55 497.833 1295.25 496.518 1297.82 494.916L1327.74 476.216L1339.05 509.634L1353.83 553.244V301.725H1261.91V481.962ZM296.193 276.507C315.143 276.813 332.696 281.871 348.851 291.68C365.526 301.804 378.927 316.098 389.052 334.561C399.176 353.023 404.239 375.06 404.239 400.67L404.225 403.115C403.918 428.267 398.86 449.787 389.052 467.673L388.093 469.391C378.086 487.006 365.005 500.43 348.851 509.661L347.282 510.54C331.037 519.483 313.394 523.955 294.354 523.955L292.516 523.94C274.16 523.661 256.851 519.194 240.589 510.54L238.966 509.661C222.29 500.132 208.889 486.135 198.765 467.673C189.533 449.787 184.773 428.267 184.484 403.115L184.471 400.67C184.471 375.06 189.236 353.023 198.765 334.561C208.731 316.386 221.872 302.252 238.187 292.157L238.966 291.68C255.642 281.555 274.105 276.492 294.354 276.492L296.193 276.507ZM753.625 482.562C756.267 493.51 761.461 501.352 769.341 507.35C778.203 513.087 789.69 516.585 805.103 516.585C821.137 516.585 829.676 513.441 833.959 510.508C838.956 506.497 838.827 504.324 838.827 503.407C838.827 502.216 838.687 501.527 838.599 501.206C838.518 500.911 838.443 500.784 838.393 500.706C838.352 500.644 837.647 499.524 834.605 498.003L834.16 497.78L833.723 497.542C823.721 492.087 809.19 486.856 789.22 482.418L789.137 482.4L789.055 482.381C776.938 479.611 764.421 476.741 751.502 473.771L753.625 482.562ZM294.354 304.41C279.011 304.41 265.593 308.174 253.455 315.543C241.385 322.871 231.351 333.315 223.416 347.673C216.448 361.314 212.389 378.662 212.389 400.67C212.389 423.385 216.491 440.997 223.417 454.561C231.245 468.719 241.028 478.641 252.646 485.321C265.745 492.509 279.508 496.037 294.354 496.037C309.268 496.037 322.643 492.482 334.999 485.422C346.777 478.691 356.679 468.645 364.573 454.249C371.954 440.789 376.321 423.313 376.321 400.67C376.321 378.746 372.003 361.532 364.573 347.984C356.612 333.466 346.519 322.924 334.361 315.543C322.087 308.091 308.939 304.41 294.354 304.41ZM583.136 492.663L710.509 464.086C689.782 458.507 669.888 451.105 650.86 441.863L650.573 441.724L650.289 441.577C625.61 428.885 605.154 411.376 589.368 389.133C587.126 385.974 585.052 382.717 583.136 379.369V492.663ZM791.702 285.649C775.328 285.649 768.138 288.861 765.571 290.786C763.072 292.66 762.444 293.915 762.444 297.039C762.444 298.686 762.78 299.355 763.076 299.826C763.475 300.46 764.686 302.023 768.014 304.048C778.103 309.474 792.287 314.608 811.323 318.959C820.522 321.062 829.932 323.331 839.553 325.766L838.477 320.382C836.001 308.005 830.942 300.104 824.165 294.617C817.935 289.574 808.065 285.649 791.702 285.649Z"/>
</mask>
<path d="M1261.91 83.5205L1263.91 83.5205V83.5205H1261.91ZM1253.56 121.844L1251.71 121.082L1251.71 121.088L1253.56 121.844ZM1253.44 122.126L1255.27 122.929L1255.28 122.906L1255.29 122.882L1253.44 122.126ZM1253.32 122.404L1251.49 121.601L1251.49 121.603L1253.32 122.404ZM1252.83 123.498L1251.01 122.673L1249.73 125.498H1252.83V123.498ZM1361.08 123.498H1363.08V121.498H1361.08V123.498ZM1361.08 123.51H1359.08V125.51H1361.08V123.51ZM1560.64 123.51H1562.64V121.51H1560.64V123.51ZM1560.64 168.804H1558.64V173.501L1562.03 170.245L1560.64 168.804ZM1571.27 159.345L1572.54 160.89L1572.55 160.883L1572.56 160.876L1571.27 159.345ZM1691.74 119.043V117.043V119.043ZM1719.66 119.043H1721.66V117.043H1719.66V119.043ZM1719.66 123.505H1717.66V125.505H1719.66V123.505ZM1881.81 123.505H1883.81V121.505H1881.81V123.505ZM1881.81 409.606H1879.81H1881.81ZM1900.48 471.262L1899 472.605L1900.48 471.262ZM1949.48 490.68V492.68V490.68ZM1985.16 480.628L1986.31 482.26L1985.16 480.628ZM2008.81 451.039L2010.63 451.86L2010.64 451.845L2010.64 451.831L2008.81 451.039ZM2018.04 402.55L2020.04 402.571L2020.04 402.56L2018.04 402.55ZM2018.04 400.673L2020.04 400.683V400.673H2018.04ZM2018.04 123.505V121.505H2016.04V123.505H2018.04ZM2223.97 123.505H2225.97V121.505H2223.97V123.505ZM2223.97 151.413H2221.97V153.413H2223.97V151.413ZM2383.69 151.413L2385.34 150.275L2384.74 149.413H2383.69V151.413ZM2479.9 290.489L2478.25 291.627L2480.04 294.206L2481.62 291.501L2479.9 290.489ZM2561.47 151.413V149.413H2560.33L2559.75 150.401L2561.47 151.413ZM2724.96 151.413L2726.62 152.52L2728.69 149.413H2724.96V151.413ZM2607.04 328.813L2605.38 327.706L2603.31 330.813H2607.04V328.813ZM2655.73 328.813H2657.73V326.813H2655.73V328.813ZM2655.73 454.778V456.778H2657.73V454.778H2655.73ZM2593.54 454.778V452.778H2589.73L2591.9 455.916L2593.54 454.778ZM2728.53 649.912V651.912H2732.35L2730.18 648.774L2728.53 649.912ZM2559.68 649.912L2558.04 651.05L2558.64 651.912H2559.68V649.912ZM2463.11 510.312L2464.76 509.174L2462.96 506.571L2461.38 509.314L2463.11 510.312ZM2382.8 649.912V651.912H2383.95L2384.53 650.909L2382.8 649.912ZM2223.57 649.912V647.912H2221.66L2221.57 649.819L2223.57 649.912ZM2207.4 739L2209.3 739.621L2207.4 739ZM2154.57 831.733L2153.07 830.414L2153.06 830.424L2153.05 830.433L2154.57 831.733ZM2064.27 897.064L2065.07 898.898L2064.27 897.064ZM1935.18 920.836V922.836V920.836ZM1814.6 899.404L1815.32 897.538L1815.31 897.534L1814.6 899.404ZM1812.86 898.743L1812.15 900.611L1812.15 900.613L1812.86 898.743ZM1717.54 835.354L1716.01 836.634L1716.05 836.685L1716.1 836.734L1717.54 835.354ZM1717.54 835.348L1719.08 834.067L1719.02 833.998L1718.95 833.933L1717.54 835.348ZM1717.53 835.342L1716.09 836.721L1716.1 836.739L1716.12 836.756L1717.53 835.342ZM1657.66 733.793L1655.77 734.425L1657.66 733.793ZM1648.89 707.47L1648.24 705.576L1646.36 706.216L1646.99 708.102L1648.89 707.47ZM1675.16 698.534L1674.51 696.641V696.641L1675.16 698.534ZM1803.63 654.835L1804.28 656.728L1809.11 655.086L1804.45 653.009L1803.63 654.835ZM1783.6 644.591L1784.6 642.861L1784.6 642.86L1783.6 644.591ZM1783.31 644.424L1782.27 646.128L1782.29 646.142L1782.31 646.154L1783.31 644.424ZM1783.03 644.25L1784.07 642.545L1784.07 642.544L1783.03 644.25ZM1704.03 558.249L1702.26 559.166L1702.26 559.17L1704.03 558.249ZM1703.89 557.977L1702.1 558.858L1702.11 558.876L1702.11 558.894L1703.89 557.977ZM1703.76 557.7L1701.96 558.582L1701.96 558.582L1703.76 557.7ZM1676.78 430.153H1674.78H1676.78ZM1676.78 330.072H1678.78V328.325L1677.05 328.09L1676.78 330.072ZM1670.2 329.293L1670 331.283L1670.2 329.293ZM1655.11 328.538V326.538V328.538ZM1608.38 340.844L1607.38 339.114L1607.38 339.116L1608.38 340.844ZM1608.09 341.016L1609.05 342.77L1609.07 342.757L1609.09 342.744L1608.09 341.016ZM1607.79 341.18L1606.83 339.425L1606.83 339.426L1607.79 341.18ZM1574.07 375.882L1575.81 376.859L1575.81 376.857L1574.07 375.882ZM1573.98 376.037L1575.72 377.031L1575.72 377.022L1575.72 377.014L1573.98 376.037ZM1573.89 376.192L1575.62 377.19L1575.63 377.186L1573.89 376.192ZM1560.64 435.519H1558.64H1560.64ZM1560.64 677.845V679.845H1562.64V677.845H1560.64ZM1353.83 677.845H1351.83V679.845H1353.83V677.845ZM1353.83 658.894H1355.83V655.67L1352.94 657.102L1353.83 658.894ZM1313.4 675.507L1314.03 677.405L1314.03 677.404L1313.4 675.507ZM1313.09 675.609L1313.68 677.52L1313.7 677.514L1313.72 677.507L1313.09 675.609ZM1312.78 675.705L1313.37 677.617L1313.37 677.616L1312.78 675.705ZM1252.76 684.086V686.086V684.086ZM1106.85 631.041L1108.28 629.641L1108.28 629.641L1106.85 631.041ZM1106.76 630.942L1105.31 632.328L1105.32 632.335L1105.33 632.342L1106.76 630.942ZM1106.66 630.843L1105.22 632.228L1106.66 630.843ZM1055.1 480.175H1053.1H1055.1ZM1055.1 301.725H1057.1V299.725H1055.1V301.725ZM1026.47 301.725V299.725H1026.21L1025.96 299.79L1026.47 301.725ZM1006.03 307.073L1006.54 309.008H1006.54L1006.03 307.073ZM886.504 338.359L885.997 336.425L878.886 338.286L885.96 340.284L886.504 338.359ZM950.089 363.336L951.004 361.557L950.089 363.336ZM1011.25 417.015L1012.9 415.882L1011.25 417.015ZM1035.81 506.98H1037.81H1035.81ZM1005.48 600.199L1003.87 599.015L1003.86 599.026L1003.85 599.038L1005.48 600.199ZM924.258 663.047L925.05 664.883L925.05 664.883L924.258 663.047ZM924.045 663.139L924.809 664.987L924.823 664.981L924.837 664.975L924.045 663.139ZM923.83 663.228L924.592 665.077L924.595 665.076L923.83 663.228ZM805.996 684.091V686.091V684.091ZM696.192 665.36L696.891 663.486L696.883 663.483L696.192 665.36ZM696.107 665.329L695.379 667.192L695.398 667.199L695.417 667.206L696.107 665.329ZM696.022 665.296L696.75 663.433L696.742 663.43L696.733 663.426L696.022 665.296ZM611.155 611.592L609.736 613.001L609.741 613.006L611.155 611.592ZM611.013 611.448L609.584 612.848L609.594 612.858L611.013 611.448ZM610.871 611.304L609.437 612.697L609.443 612.703L610.871 611.304ZM583.136 576.408L584.821 575.331L581.136 569.568V576.408H583.136ZM583.136 677.837V679.837H585.136V677.837H583.136ZM481.068 677.837V679.837V677.837ZM405.489 650.44L404.107 651.886L405.489 650.44ZM405.265 650.226L403.847 651.637L403.865 651.654L403.882 651.671L405.265 650.226ZM405.046 650.006L406.463 648.595L406.46 648.592L405.046 650.006ZM387.212 625.049L389.008 624.169L387.732 621.564L385.751 623.683L387.212 625.049ZM360.832 648.356L362.008 649.974L362.01 649.972L360.832 648.356ZM360.789 648.388L361.941 650.023L361.953 650.014L361.965 650.005L360.789 648.388ZM360.746 648.418L359.594 646.783L359.584 646.79L359.574 646.798L360.746 648.418ZM245.22 684.091V686.091V684.091ZM114.999 645.194L113.86 646.838L113.862 646.84L114.999 645.194ZM114.9 645.126L113.75 646.762L113.761 646.77L114.9 645.126ZM114.802 645.057L113.651 646.692L113.652 646.693L114.802 645.057ZM30.5469 542.951L28.7347 543.797L28.736 543.8L30.5469 542.951ZM30.4365 542.715L28.6104 543.531L28.6173 543.546L28.6243 543.561L30.4365 542.715ZM30.3301 542.477L28.5036 543.291L28.504 543.292L30.3301 542.477ZM2 400.67H0H2ZM30.3301 259.757L28.5075 258.933L28.5036 258.942L30.3301 259.757ZM30.4033 259.595L28.5848 258.762L28.5807 258.771L30.4033 259.595ZM30.4775 259.433L28.6616 258.594L28.6591 258.6L30.4775 259.433ZM114.802 156.283L113.662 154.639L113.657 154.643L113.651 154.648L114.802 156.283ZM114.999 156.146L113.862 154.501L113.86 154.503L114.999 156.146ZM245.22 117.249V115.249V117.249ZM360.771 153.832L359.579 155.438L359.595 155.45L359.612 155.462L360.771 153.832ZM376.321 166.226L374.99 167.718L378.321 170.69V166.226H376.321ZM376.321 123.503V121.503H374.321V123.503H376.321ZM583.136 123.503H585.136V121.503H583.136V123.503ZM583.136 223.187H581.136L584.91 224.11L583.136 223.187ZM592.479 207.404L590.818 206.291L590.815 206.295L592.479 207.404ZM592.616 207.2L590.97 206.065L590.962 206.076L590.955 206.087L592.616 207.2ZM592.755 206.999L591.11 205.861L591.108 205.864L592.755 206.999ZM672.417 141.439L673.282 143.243L673.29 143.239L672.417 141.439ZM672.514 141.393L671.678 139.576L671.659 139.584L671.641 139.593L672.514 141.393ZM672.611 141.348L673.447 143.165L673.455 143.161L673.463 143.157L672.611 141.348ZM795.275 117.249V115.249V117.249ZM901.328 136.259L900.566 138.108L901.799 138.616L902.742 137.673L901.328 136.259ZM901.329 136.258L902.079 134.404L900.851 133.907L899.915 134.844L901.329 136.258ZM975.589 185.572L974.142 186.953L977.589 190.566V185.572H975.589ZM975.589 123.498V121.498H973.589V123.498H975.589ZM1042.82 123.498V125.498V123.498ZM1055.24 119.168L1056.65 120.582V120.582L1055.24 119.168ZM1059.57 106.747H1061.57H1059.57ZM1059.57 2V0H1057.57V2H1059.57ZM1261.91 2H1263.91V0H1261.91V2ZM1719.66 337.645L1719.3 339.612L1721.66 340.041V337.645H1719.66ZM1704.7 334.924L1705.05 332.956L1702.7 332.527V334.924H1704.7ZM1704.7 430.153H1702.7V430.159L1704.7 430.153ZM1704.7 432.215L1702.7 432.221V432.226L1704.7 432.215ZM1728.82 545.398L1727.02 546.28L1727.03 546.3L1727.04 546.319L1728.82 545.398ZM1797.61 620.44L1796.56 622.146L1796.58 622.159L1796.6 622.17L1797.61 620.44ZM1897.67 646.342L1897.65 648.342L1897.66 648.342L1897.67 646.342ZM1899.45 646.349L1899.44 648.349H1899.45V646.349ZM1955.73 637.126L1956.36 639.024L1956.37 639.021L1955.73 637.126ZM1957.52 636.521L1958.16 638.416L1958.17 638.413L1957.52 636.521ZM2009.33 602.573L2007.89 601.185L2007.89 601.186L2009.33 602.573ZM2045.96 538.285H2047.96L2044.07 537.637L2045.96 538.285ZM2045.96 632.948L2047.96 632.956V632.948H2045.96ZM2045.96 634.812L2047.96 634.828V634.82L2045.96 634.812ZM2015.59 727.645L2014.08 726.33L2014.07 726.345L2014.05 726.361L2015.59 727.645ZM2014.66 728.753L2016.18 730.049L2016.19 730.043L2016.19 730.037L2014.66 728.753ZM1928.93 763.38L1928.92 765.38H1928.93V763.38ZM1927.59 763.374L1927.58 765.374L1927.59 765.374L1927.59 763.374ZM1858.36 740.007L1857.08 741.542L1857.09 741.55L1858.36 740.007ZM1857.46 739.259L1856.18 740.791L1856.18 740.794L1857.46 739.259ZM1815.47 680.297L1817.33 679.554L1816.63 677.792L1814.83 678.403L1815.47 680.297ZM1684.15 724.965L1683.5 723.071L1681.62 723.711L1682.25 725.597L1684.15 724.965ZM1737.75 816.088L1736.3 817.467L1736.3 817.468L1737.75 816.088ZM1824.41 873.264L1825.13 871.398L1825.12 871.394L1825.11 871.391L1824.41 873.264ZM1935.18 892.918V894.918V892.918ZM2051.57 872.142L2052.35 873.981L2052.36 873.978L2051.57 872.142ZM2053.11 871.478L2053.9 873.314L2053.91 873.311L2053.11 871.478ZM2133.51 813.408L2132.01 812.089L2132 812.099L2131.99 812.11L2133.51 813.408ZM2180.38 731.774L2182.28 732.408L2182.28 732.401L2180.38 731.774ZM2180.86 730.325L2182.76 730.952L2182.76 730.947L2180.86 730.325ZM2196.03 636.126L2198.03 636.145V636.135L2196.03 636.126ZM2196.05 632.948L2198.05 632.957V632.948H2196.05ZM2196.05 151.423H2198.05V149.423H2196.05V151.423ZM2045.96 151.423V149.423H2043.96V151.423H2045.96ZM2045.96 400.673H2047.96H2045.96ZM2034.35 462.314L2036.17 463.133L2036.18 463.121L2036.18 463.11L2034.35 462.314ZM2001.29 503.409L2002.44 505.046L2002.45 505.041L2001.29 503.409ZM2000.62 503.881L2001.76 505.525L2001.77 505.518L2000.62 503.881ZM1949.48 518.597V520.597V518.597ZM1880.61 490.896L1879.14 492.248L1879.14 492.253L1879.15 492.258L1880.61 490.896ZM1879.8 490.009L1878.31 491.352L1878.32 491.361L1879.8 490.009ZM1853.89 411.22L1851.89 411.227L1851.89 411.235L1853.89 411.22ZM1853.89 409.606H1851.89V409.614L1853.89 409.606ZM1853.89 151.423H1855.89V149.423H1853.89V151.423ZM1719.66 151.423V149.423H1717.66V151.423H1719.66ZM2018.04 632.807H2020.04V628.407L2016.73 631.3L2018.04 632.807ZM1966.59 662.923L1967.24 664.814L1966.59 662.923ZM1899.45 674.267V676.267V674.267ZM1840.38 667.393L1840.86 665.45L1837.08 664.523L1838.52 668.136L1840.38 667.393ZM1841.39 669.928L1843.25 669.185L1843.25 669.185L1841.39 669.928ZM1874.03 716.702L1872.72 718.214L1872.73 718.22L1872.74 718.225L1874.03 716.702ZM1875.4 717.868L1874.11 719.391L1874.11 719.397L1875.4 717.868ZM1875.43 717.895L1876.75 716.389L1876.74 716.378L1876.72 716.366L1875.43 717.895ZM1875.46 717.922L1874.15 719.427L1874.16 719.439L1874.18 719.45L1875.46 717.922ZM1928.93 735.462V737.462V735.462ZM1994.05 709.879L1992.51 708.605L1992.51 708.606L1994.05 709.879ZM1994.29 709.586L1992.78 708.276L1992.77 708.293L1992.75 708.312L1994.29 709.586ZM1994.54 709.299L1993.04 707.985L1993.03 707.988L1994.54 709.299ZM2018.04 632.948H2020.04H2018.04ZM245.22 145.167L245.228 143.167H245.22V145.167ZM130.868 179.115L129.731 177.47L129.724 177.475L129.717 177.48L130.868 179.115ZM55.8252 271.132L54.0093 270.294L54.0023 270.309L53.9956 270.324L55.8252 271.132ZM55.0225 272.95L53.1928 272.142L53.1902 272.148L55.0225 272.95ZM29.918 400.67H27.918H29.918ZM55.8252 531.102L53.9987 531.916L54.0063 531.934L54.0143 531.95L55.8252 531.102ZM130.868 622.226L129.717 623.861L129.724 623.866L129.731 623.871L130.868 622.226ZM243.186 656.165L243.169 658.165L243.178 658.165L243.186 656.165ZM245.22 656.173L245.212 658.173H245.22V656.173ZM343.067 626.74L344.223 628.372L344.231 628.367L343.067 626.74ZM344.384 625.799L345.547 627.426L345.555 627.42L345.562 627.415L344.384 625.799ZM404.239 540.035H406.239L402.33 539.44L404.239 540.035ZM404.239 573.983H402.239H404.239ZM424.786 630.266L423.372 631.68L423.388 631.696L423.404 631.711L424.786 630.266ZM479.955 649.915L479.938 651.915L479.946 651.915L479.955 649.915ZM481.068 649.92L481.06 651.92H481.068V649.92ZM555.218 649.92V651.92H557.218V649.92H555.218ZM555.218 512.954H557.218V512.63L557.115 512.322L555.218 512.954ZM550.867 499.903L550.429 497.952L548.27 498.437L548.97 500.536L550.867 499.903ZM555.218 498.927L555.656 500.878L557.218 500.528V498.927H555.218ZM555.218 151.421H557.218V149.421H555.218V151.421ZM404.239 151.421V149.421H402.239V151.421H404.239ZM404.239 262.198L402.327 262.784L406.239 262.198H404.239ZM344.384 176.435L343.189 178.039L343.208 178.053L343.228 178.067L344.384 176.435ZM247.003 145.175L247.02 143.175L247.012 143.175L247.003 145.175ZM795.275 145.167V143.167V145.167ZM684.498 166.607L683.646 164.798L683.64 164.801L683.633 164.804L684.498 166.607ZM615.709 222.89L614.065 221.751L614.052 221.769L614.04 221.787L615.709 222.89ZM614.988 223.98L613.32 222.878L613.314 222.886L614.988 223.98ZM592.481 300.613H590.481V300.62L592.481 300.613ZM592.486 302.005L590.486 302.012L590.486 302.019L592.486 302.005ZM612.136 372.976L610.505 374.133H610.505L612.136 372.976ZM663.058 416.751L662.143 418.53L662.163 418.54L662.184 418.55L663.058 416.751ZM729.167 439.979L728.717 441.927L729.167 439.979ZM795.275 455.165L794.83 457.115L794.842 457.117L795.275 455.165ZM847.091 473.033L846.133 474.789L846.164 474.806L846.196 474.822L847.091 473.033ZM866.745 503.407L868.745 503.422L868.745 503.415V503.407H866.745ZM866.741 503.937L868.741 503.966L868.741 503.959L868.741 503.951L866.741 503.937ZM850.664 532.889L851.835 534.51L851.864 534.489L851.892 534.467L850.664 532.889ZM805.103 544.502V546.502V544.502ZM753.287 530.208L752.098 531.816L752.137 531.845L752.178 531.872L753.287 530.208ZM726.486 489.113L728.43 488.644L727.969 486.731L726.049 487.162L726.486 489.113ZM587.121 520.381L586.683 518.429L584.524 518.914L585.224 521.013L587.121 520.381ZM630.896 591.851L629.462 593.244L629.472 593.255L629.482 593.265L630.896 591.851ZM705.939 639.199L705.229 641.069L705.241 641.073L705.939 639.199ZM805.996 656.173V658.173V656.173ZM913.2 637.412L913.962 639.261L913.977 639.255L913.992 639.249L913.2 637.412ZM982.883 583.811L981.273 582.624L981.262 582.638L981.252 582.652L982.883 583.811ZM1007.89 508.318L1009.89 508.337L1009.89 508.329L1007.89 508.318ZM1007.9 506.98L1009.9 506.991V506.98H1007.9ZM988.853 433.729L990.514 432.615L990.507 432.605L988.853 433.729ZM988.243 432.831L989.898 431.708L989.891 431.698L988.243 432.831ZM938.296 388.669L939.224 386.897L939.217 386.894L938.296 388.669ZM937.321 388.163L938.243 386.388L938.236 386.385L937.321 388.163ZM871.212 363.148L870.669 365.073L870.692 365.08L870.715 365.086L871.212 363.148ZM809.025 347.078L809.478 345.13L809.474 345.129L809.025 347.078ZM805.103 346.175L805.551 344.226L805.548 344.225L805.103 346.175ZM754.181 328.308L753.163 330.029L753.193 330.047L753.223 330.063L754.181 328.308ZM734.526 297.039L732.526 297.039V297.039L734.526 297.039ZM747.941 269.129L746.721 267.544L746.711 267.552L746.701 267.56L747.941 269.129ZM748.82 268.452L747.62 266.852L747.61 266.86L747.6 266.867L748.82 268.452ZM791.702 257.731L791.717 255.732L791.71 255.731H791.702V257.731ZM793.645 257.746L793.675 255.746L793.667 255.746L793.66 255.746L793.645 257.746ZM841.73 272.919L842.989 271.364V271.364L841.73 272.919ZM865.852 314.907L863.89 315.299L864.306 317.379L866.358 316.842L865.852 314.907ZM975.589 286.184L976.095 288.118L977.589 287.727V286.184H975.589ZM975.589 229.335H977.589V228.718L977.242 228.209L975.589 229.335ZM959.655 209.489L958.156 210.812L958.176 210.836L958.198 210.859L959.655 209.489ZM890.866 162.141L890.103 163.989L890.11 163.992L890.117 163.995L890.866 162.141ZM1087.48 106.747H1089.48H1087.48ZM1074.98 138.909L1076.39 140.323L1074.98 138.909ZM1042.82 151.416V153.416V151.416ZM1003.51 151.416V149.416H1001.51V151.416H1003.51ZM1003.51 221.099H1001.51V221.665L1001.8 222.147L1003.51 221.099ZM1025.83 272.473L1027.75 271.929L1027.75 271.929L1025.83 272.473ZM1026.21 273.808L1024.28 274.351L1024.69 275.808H1026.21V273.808ZM1083.02 273.808H1085.02V271.808H1083.02V273.808ZM1083.02 480.175H1081.02H1083.02ZM1126.79 611.5L1125.35 612.886L1125.36 612.893L1125.36 612.9L1126.79 611.5ZM1250.2 656.157L1250.18 658.157L1250.19 658.157L1250.2 656.157ZM1252.76 656.169L1252.75 658.169H1252.76V656.169ZM1304.57 649.021L1305.16 650.933L1305.18 650.926L1305.2 650.919L1304.57 649.021ZM1348.79 630.09L1349.73 631.854L1349.74 631.851L1348.79 630.09ZM1350.13 629.367L1351.08 631.128L1352.57 630.327L1352.03 628.726L1350.13 629.367ZM1312.61 518.59L1314.51 517.948L1313.7 515.554L1311.55 516.894L1312.61 518.59ZM1297.42 525.737L1297.91 527.678L1297.98 527.659L1298.06 527.635L1297.42 525.737ZM1281.34 527.523V529.523V527.523ZM1247.4 515.91L1246.03 517.372L1246.08 517.419L1246.14 517.462L1247.4 515.91ZM1234.01 483.293L1232.01 483.312L1232.01 483.322L1232.01 483.333L1234.01 483.293ZM1234 481.962H1232V481.971L1232 481.981L1234 481.962ZM1234 273.808V271.808H1232V273.808H1234ZM1333.16 273.808V275.808H1335.16V273.808H1333.16ZM1333.16 151.416H1335.16V149.416H1333.16V151.416ZM1177.71 151.416L1177.32 149.455L1177.71 153.416V151.416ZM1208.09 137.122L1209.39 138.641L1209.4 138.633L1208.09 137.122ZM1227.34 112.105L1229.16 112.935L1229.17 112.928L1229.17 112.921L1227.34 112.105ZM1227.74 111.215L1229.57 112.03L1229.58 112.003L1229.59 111.976L1227.74 111.215ZM1233.99 84.3047L1235.99 84.3357L1235.99 84.3221L1233.99 84.3047ZM1234 83.5205L1236 83.5379L1236 83.5292V83.5205H1234ZM1234 29.918H1236V27.918H1234V29.918ZM1087.48 29.918V27.918H1085.48V29.918H1087.48ZM1676.78 147.47H1678.78V145.326L1676.64 145.475L1676.78 147.47ZM1589 180.909L1590.28 182.454L1590.29 182.446L1590.3 182.437L1589 180.909ZM1532.72 272.032H1530.72L1534.65 272.566L1532.72 272.032ZM1532.72 151.428H1534.72V149.428H1532.72V151.428ZM1381.74 151.428V149.428H1379.74V151.428H1381.74ZM1381.74 635.667H1379.74V635.997L1379.85 636.309L1381.74 635.667ZM1384.13 642.705L1385.08 644.464L1386.56 643.661L1386.02 642.063L1384.13 642.705ZM1381.74 643.996L1380.79 642.237L1379.74 642.805V643.996H1381.74ZM1381.74 649.927H1379.74V651.927H1381.74V649.927ZM1532.72 649.927V651.927H1534.72V649.927H1532.72ZM1532.72 435.519L1530.72 435.513V435.519H1532.72ZM1532.73 434.154L1530.73 434.142V434.149L1532.73 434.154ZM1549.7 362.263L1551.43 363.261L1551.44 363.25L1551.44 363.238L1549.7 362.263ZM1593.5 317.179L1592.53 315.429L1592.52 315.434L1593.5 317.179ZM1594.36 316.701L1595.33 318.451L1595.35 318.441L1595.37 318.431L1594.36 316.701ZM1655.11 300.62V298.62V300.62ZM1672.98 301.514L1673.18 299.524L1672.98 301.514ZM1676.78 301.932L1676.54 303.918L1678.78 304.183V301.932H1676.78ZM2223.97 632.948H2225.97H2223.97ZM2223.83 642.908L2221.83 642.854L2221.64 649.996L2225.51 643.993L2223.83 642.908ZM2345.24 454.778L2346.92 455.863L2348.91 452.778H2345.24V454.778ZM2263.54 454.778H2261.54V456.778H2263.54V454.778ZM2263.54 328.813V326.813H2261.54V328.813H2263.54ZM2337.56 328.813V330.813H2341.38L2339.21 327.676L2337.56 328.813ZM2223.97 164.6L2225.61 163.462L2221.97 158.193V164.6H2223.97ZM1261.91 481.962H1259.91H1261.91ZM1265.84 494.896L1264.39 496.273L1264.51 496.397L1264.64 496.499L1265.84 494.896ZM1281.34 499.605V501.605V499.605ZM1289.68 498.873L1290.09 500.832L1290.23 500.803L1290.36 500.753L1289.68 498.873ZM1297.82 494.916L1298.88 496.612L1298.88 496.612L1297.82 494.916ZM1327.74 476.216L1329.63 475.574L1328.82 473.18L1326.68 474.52L1327.74 476.216ZM1339.05 509.634L1337.16 510.275V510.275L1339.05 509.634ZM1353.83 553.244L1351.93 553.886L1355.83 553.244H1353.83ZM1353.83 301.725H1355.83V299.725H1353.83V301.725ZM1261.91 301.725V299.725H1259.91V301.725H1261.91ZM296.193 276.507L296.226 274.507L296.217 274.507L296.209 274.507L296.193 276.507ZM348.851 291.68L349.889 289.97L348.851 291.68ZM389.052 334.561L390.805 333.599L389.052 334.561ZM404.239 400.67L406.239 400.682V400.67H404.239ZM404.225 403.115L406.224 403.14L406.225 403.127L404.225 403.115ZM389.052 467.673L390.798 468.648L390.802 468.641L390.805 468.635L389.052 467.673ZM388.093 469.391L389.832 470.379L389.835 470.372L389.839 470.366L388.093 469.391ZM348.851 509.661L349.828 511.406L349.836 511.402L349.843 511.398L348.851 509.661ZM347.282 510.54L348.247 512.292L348.253 512.288L348.26 512.285L347.282 510.54ZM294.354 523.955L294.339 525.955L294.347 525.955H294.354V523.955ZM292.516 523.94L292.485 525.94L292.492 525.94L292.5 525.94L292.516 523.94ZM240.589 510.54L239.637 512.299L239.643 512.302L239.649 512.306L240.589 510.54ZM238.966 509.661L237.974 511.398L237.993 511.409L238.013 511.42L238.966 509.661ZM198.765 467.673L196.987 468.59L196.999 468.612L197.011 468.635L198.765 467.673ZM184.484 403.115L182.484 403.126L182.485 403.138L184.484 403.115ZM184.471 400.67H182.471L182.471 400.681L184.471 400.67ZM198.765 334.561L197.011 333.599L196.999 333.621L196.987 333.643L198.765 334.561ZM238.187 292.157L237.142 290.452L237.134 290.456L238.187 292.157ZM238.966 291.68L237.928 289.97L237.921 289.974L238.966 291.68ZM294.354 276.492L294.37 274.492L294.362 274.492H294.354V276.492ZM753.625 482.562L755.569 482.093L755.569 482.093L753.625 482.562ZM769.341 507.35L768.129 508.941L768.19 508.987L768.254 509.028L769.341 507.35ZM805.103 516.585V518.585V516.585ZM833.959 510.508L835.089 512.158L835.152 512.115L835.211 512.068L833.959 510.508ZM838.827 503.407H836.827V503.407L838.827 503.407ZM838.599 501.206L840.527 500.676L840.527 500.676L838.599 501.206ZM838.393 500.706L836.713 501.791L836.713 501.792L838.393 500.706ZM834.605 498.003L835.5 496.214L834.605 498.003ZM834.16 497.78L833.204 499.537L833.234 499.553L833.266 499.569L834.16 497.78ZM833.723 497.542L832.765 499.298L832.766 499.298L833.723 497.542ZM789.22 482.418L789.654 480.466L789.644 480.463L789.634 480.461L789.22 482.418ZM789.137 482.4L788.673 484.346L788.698 484.352L788.722 484.357L789.137 482.4ZM789.055 482.381L789.518 480.435L789.509 480.433L789.5 480.431L789.055 482.381ZM751.502 473.771L751.95 471.821L748.799 471.097L749.558 474.24L751.502 473.771ZM294.354 304.41V302.41V304.41ZM253.455 315.543L252.417 313.833L252.417 313.833L253.455 315.543ZM223.416 347.673L221.666 346.705L221.65 346.734L221.635 346.763L223.416 347.673ZM212.389 400.67H210.389H212.389ZM223.417 454.561L221.636 455.47L221.651 455.499L221.667 455.528L223.417 454.561ZM252.646 485.321L251.648 487.055L251.666 487.065L251.683 487.075L252.646 485.321ZM294.354 496.037V498.037V496.037ZM334.999 485.422L335.991 487.158L334.999 485.422ZM364.573 454.249L366.327 455.211L364.573 454.249ZM376.321 400.67H378.321H376.321ZM364.573 347.984L366.327 347.023L364.573 347.984ZM334.361 315.543L335.399 313.833L334.361 315.543ZM583.136 492.663H581.136V495.162L583.574 494.615L583.136 492.663ZM710.509 464.086L710.947 466.037L711.029 462.155L710.509 464.086ZM650.86 441.863L649.986 443.662L649.987 443.662L650.86 441.863ZM650.573 441.724L649.657 443.501L649.678 443.512L649.698 443.522L650.573 441.724ZM650.289 441.577L651.205 439.799L651.204 439.799L650.289 441.577ZM589.368 389.133L587.737 390.29H587.737L589.368 389.133ZM583.136 379.369L584.872 378.376L581.136 371.849V379.369H583.136ZM791.702 285.649V283.649V285.649ZM765.571 290.786L764.371 289.186V289.186L765.571 290.786ZM762.444 297.039L760.444 297.039V297.039L762.444 297.039ZM763.076 299.826L761.383 300.89L761.383 300.891L763.076 299.826ZM768.014 304.048L766.974 305.756L767.019 305.784L767.066 305.809L768.014 304.048ZM811.323 318.959L810.878 320.909L811.323 318.959ZM839.553 325.766L839.062 327.705L842.135 328.482L841.514 325.374L839.553 325.766ZM838.477 320.382L840.438 319.99V319.99L838.477 320.382ZM824.165 294.617L825.423 293.063L825.423 293.063L824.165 294.617ZM1261.91 83.5205L1259.91 83.5205C1259.91 96.1229 1256.78 108.758 1251.71 121.082L1253.56 121.844L1255.41 122.605C1260.62 109.942 1263.91 96.7813 1263.91 83.5205L1261.91 83.5205ZM1253.56 121.844L1251.71 121.088L1251.59 121.37L1253.44 122.126L1255.29 122.882L1255.41 122.6L1253.56 121.844ZM1253.44 122.126L1251.61 121.323L1251.49 121.601L1253.32 122.404L1255.15 123.208L1255.27 122.929L1253.44 122.126ZM1253.32 122.404L1251.49 121.603C1251.33 121.958 1251.17 122.313 1251.01 122.673L1252.83 123.498L1254.65 124.323C1254.82 123.956 1254.99 123.583 1255.15 123.206L1253.32 122.404ZM1252.83 123.498V125.498H1361.08V123.498V121.498H1252.83V123.498ZM1361.08 123.498H1359.08V123.51H1361.08H1363.08V123.498H1361.08ZM1361.08 123.51V125.51H1560.64V123.51V121.51H1361.08V123.51ZM1560.64 123.51H1558.64V168.804H1560.64H1562.64V123.51H1560.64ZM1560.64 168.804L1562.03 170.245C1565.4 167.005 1568.9 163.884 1572.54 160.89L1571.27 159.345L1570 157.8C1566.28 160.861 1562.7 164.05 1559.25 167.362L1560.64 168.804ZM1571.27 159.345L1572.56 160.876C1604.84 133.74 1645.27 121.043 1691.74 121.043V119.043V117.043C1644.52 117.043 1603.12 129.962 1569.99 157.814L1571.27 159.345ZM1691.74 119.043V121.043H1719.66V119.043V117.043H1691.74V119.043ZM1719.66 119.043H1717.66V123.505H1719.66H1721.66V119.043H1719.66ZM1719.66 123.505V125.505H1881.81V123.505V121.505H1719.66V123.505ZM1881.81 123.505H1879.81V409.606H1881.81H1883.81V123.505H1881.81ZM1881.81 409.606H1879.81C1879.81 439.96 1887.35 459.749 1899 472.605L1900.48 471.262L1901.96 469.919C1891.18 458.017 1883.81 439.308 1883.81 409.606H1881.81ZM1900.48 471.262L1899 472.605C1910.67 485.482 1926.52 492.68 1949.48 492.68V490.68V488.68C1927.49 488.68 1912.77 481.846 1901.96 469.919L1900.48 471.262ZM1949.48 490.68V492.68C1965.23 492.68 1977.06 488.817 1986.31 482.26L1985.16 480.628L1984 478.996C1975.52 485.003 1964.53 488.68 1949.48 488.68V490.68ZM1985.16 480.628L1986.31 482.26C1996.49 475.055 2004.63 465.182 2010.63 451.86L2008.81 451.039L2006.98 450.218C2001.25 462.943 1993.55 472.235 1984 478.996L1985.16 480.628ZM2008.81 451.039L2010.64 451.831C2016.49 438.256 2019.83 421.997 2020.04 402.571L2018.04 402.55L2016.04 402.529C2015.84 421.52 2012.58 437.24 2006.97 450.248L2008.81 451.039ZM2018.04 402.55L2020.04 402.56L2020.04 400.683L2018.04 400.673L2016.04 400.662L2016.04 402.539L2018.04 402.55ZM2018.04 400.673H2020.04V123.505H2018.04H2016.04V400.673H2018.04ZM2018.04 123.505V125.505H2223.97V123.505V121.505H2018.04V123.505ZM2223.97 123.505H2221.97V151.413H2223.97H2225.97V123.505H2223.97ZM2223.97 151.413V153.413H2383.69V151.413V149.413H2223.97V151.413ZM2383.69 151.413L2382.05 152.551L2478.25 291.627L2479.9 290.489L2481.54 289.351L2385.34 150.275L2383.69 151.413ZM2479.9 290.489L2481.62 291.501L2563.2 152.425L2561.47 151.413L2559.75 150.401L2478.17 289.477L2479.9 290.489ZM2561.47 151.413V153.413H2724.96V151.413V149.413H2561.47V151.413ZM2724.96 151.413L2723.29 150.306L2605.38 327.706L2607.04 328.813L2608.71 329.921L2726.62 152.52L2724.96 151.413ZM2607.04 328.813V330.813H2655.73V328.813V326.813H2607.04V328.813ZM2655.73 328.813H2653.73V454.778H2655.73H2657.73V328.813H2655.73ZM2655.73 454.778V452.778H2593.54V454.778V456.778H2655.73V454.778ZM2593.54 454.778L2591.9 455.916L2726.89 651.05L2728.53 649.912L2730.18 648.774L2595.19 453.641L2593.54 454.778ZM2728.53 649.912V647.912H2559.68V649.912V651.912H2728.53V649.912ZM2559.68 649.912L2561.33 648.774L2464.76 509.174L2463.11 510.312L2461.47 511.449L2558.04 651.05L2559.68 649.912ZM2463.11 510.312L2461.38 509.314L2381.06 648.915L2382.8 649.912L2384.53 650.909L2464.85 511.309L2463.11 510.312ZM2382.8 649.912V647.912H2223.57V649.912V651.912H2382.8V649.912ZM2223.57 649.912L2221.57 649.819C2220.14 680.364 2214.8 709.91 2205.5 738.379L2207.4 739L2209.3 739.621C2218.72 710.801 2224.12 680.9 2225.57 650.006L2223.57 649.912ZM2207.4 739L2205.5 738.379C2194.3 772.633 2176.79 803.376 2153.07 830.414L2154.57 831.733L2156.08 833.052C2180.15 805.606 2197.93 774.389 2209.3 739.621L2207.4 739ZM2154.57 831.733L2153.05 830.433C2129.41 858.068 2099.33 879.583 2063.47 895.231L2064.27 897.064L2065.07 898.898C2101.42 883.036 2132.01 861.177 2156.09 833.034L2154.57 831.733ZM2064.27 897.064L2063.47 895.231C2026.66 911.294 1983.64 918.836 1935.18 918.836V920.836V922.836C1984.04 922.836 2027.64 915.234 2065.07 898.898L2064.27 897.064ZM1935.18 920.836V918.836C1892.49 918.836 1852.45 911.831 1815.32 897.538L1814.6 899.404L1813.89 901.271C1851.52 915.757 1892.05 922.836 1935.18 922.836V920.836ZM1814.6 899.404L1815.31 897.534L1813.57 896.873L1812.86 898.743L1812.15 900.613L1813.9 901.274L1814.6 899.404ZM1812.86 898.743L1813.58 896.875C1777.32 882.996 1745.7 861.986 1718.99 833.973L1717.54 835.354L1716.1 836.734C1743.22 865.179 1775.33 886.52 1812.15 900.611L1812.86 898.743ZM1717.54 835.354L1719.08 834.073L1719.08 834.067L1717.54 835.348L1716 836.628L1716.01 836.634L1717.54 835.354ZM1717.54 835.348L1718.95 833.933L1718.95 833.928L1717.53 835.342L1716.12 836.756L1716.13 836.762L1717.54 835.348ZM1717.53 835.342L1718.98 833.962C1692.3 805.947 1672.57 772.178 1659.56 733.161L1657.66 733.793L1655.77 734.425C1668.94 773.95 1688.96 808.242 1716.09 836.721L1717.53 835.342ZM1657.66 733.793L1659.56 733.161L1650.79 706.837L1648.89 707.47L1646.99 708.102L1655.77 734.425L1657.66 733.793ZM1648.89 707.47L1649.53 709.363L1675.8 700.428L1675.16 698.534L1674.51 696.641L1648.24 705.576L1648.89 707.47ZM1675.16 698.534L1675.8 700.428L1804.28 656.728L1803.63 654.835L1802.99 652.941L1674.51 696.641L1675.16 698.534ZM1803.63 654.835L1804.45 653.009C1797.68 649.989 1791.06 646.608 1784.6 642.861L1783.6 644.591L1782.6 646.321C1789.18 650.139 1795.92 653.584 1802.82 656.661L1803.63 654.835ZM1783.6 644.591L1784.6 642.86L1784.31 642.693L1783.31 644.424L1782.31 646.154L1782.6 646.321L1783.6 644.591ZM1783.31 644.424L1784.36 642.719L1784.07 642.545L1783.03 644.25L1781.98 645.955L1782.27 646.128L1783.31 644.424ZM1783.03 644.25L1784.07 642.544C1750.62 622.065 1724.52 593.424 1705.81 557.328L1704.03 558.249L1702.26 559.17C1721.29 595.872 1747.88 625.074 1781.98 645.956L1783.03 644.25ZM1704.03 558.249L1705.81 557.332L1705.67 557.059L1703.89 557.977L1702.11 558.894L1702.26 559.166L1704.03 558.249ZM1703.89 557.977L1705.69 557.095L1705.55 556.818L1703.76 557.7L1701.96 558.582L1702.1 558.858L1703.89 557.977ZM1703.76 557.7L1705.55 556.819C1687.4 519.845 1678.78 477.374 1678.78 430.153H1676.78H1674.78C1674.78 477.86 1683.49 520.956 1701.96 558.582L1703.76 557.7ZM1676.78 430.153H1678.78V330.072H1676.78H1674.78V430.153H1676.78ZM1676.78 330.072L1677.05 328.09C1674.77 327.781 1672.55 327.518 1670.4 327.303L1670.2 329.293L1670 331.283C1672.11 331.493 1674.27 331.751 1676.51 332.054L1676.78 330.072ZM1670.2 329.293L1670.4 327.303C1665.3 326.793 1660.2 326.538 1655.11 326.538V328.538V330.538C1660.07 330.538 1665.03 330.786 1670 331.283L1670.2 329.293ZM1655.11 328.538V326.538C1637.49 326.538 1621.76 330.765 1607.38 339.114L1608.38 340.844L1609.39 342.573C1623.14 334.59 1638.18 330.538 1655.11 330.538V328.538ZM1608.38 340.844L1607.38 339.116L1607.08 339.288L1608.09 341.016L1609.09 342.744L1609.39 342.572L1608.38 340.844ZM1608.09 341.016L1607.13 339.261L1606.83 339.425L1607.79 341.18L1608.75 342.934L1609.05 342.77L1608.09 341.016ZM1607.79 341.18L1606.83 339.426C1593.06 346.976 1581.51 358.458 1572.32 374.906L1574.07 375.882L1575.81 376.857C1584.68 360.996 1595.71 350.087 1608.75 342.933L1607.79 341.18ZM1574.07 375.882L1572.32 374.905L1572.23 375.06L1573.98 376.037L1575.72 377.014L1575.81 376.859L1574.07 375.882ZM1573.98 376.037L1572.24 375.044L1572.15 375.199L1573.89 376.192L1575.63 377.186L1575.72 377.031L1573.98 376.037ZM1573.89 376.192L1572.16 375.194C1563.67 389.941 1558.64 409.6 1558.64 435.519H1560.64H1562.64C1562.64 410.105 1567.57 391.18 1575.62 377.19L1573.89 376.192ZM1560.64 435.519H1558.64V677.845H1560.64H1562.64V435.519H1560.64ZM1560.64 677.845V675.845H1353.83V677.845V679.845H1560.64V677.845ZM1353.83 677.845H1355.83V658.894H1353.83H1351.83V677.845H1353.83ZM1353.83 658.894L1352.94 657.102C1340.12 663.459 1326.72 668.959 1312.77 673.609L1313.4 675.507L1314.03 677.404C1328.15 672.697 1341.72 667.127 1354.71 660.685L1353.83 658.894ZM1313.4 675.507L1312.77 673.609L1312.46 673.711L1313.09 675.609L1313.72 677.507L1314.03 677.405L1313.4 675.507ZM1313.09 675.609L1312.5 673.699L1312.19 673.794L1312.78 675.705L1313.37 677.616L1313.68 677.52L1313.09 675.609ZM1312.78 675.705L1312.19 673.794C1293.85 679.438 1273.96 682.086 1252.76 682.086V684.086V686.086C1274.29 686.086 1294.58 683.397 1313.37 677.617L1312.78 675.705ZM1252.76 684.086V682.086C1193.28 682.086 1143.73 665.814 1108.28 629.641L1106.85 631.041L1105.42 632.441C1141.84 669.603 1192.56 686.086 1252.76 686.086V684.086ZM1106.85 631.041L1108.28 629.641L1108.18 629.542L1106.76 630.942L1105.33 632.342L1105.42 632.441L1106.85 631.041ZM1106.76 630.942L1108.2 629.557L1108.1 629.457L1106.66 630.843L1105.22 632.228L1105.31 632.328L1106.76 630.942ZM1106.66 630.843L1108.1 629.457C1072.83 592.744 1057.1 541.605 1057.1 480.175H1055.1H1053.1C1053.1 542.259 1069 594.535 1105.22 632.228L1106.66 630.843ZM1055.1 480.175H1057.1V301.725H1055.1H1053.1V480.175H1055.1ZM1055.1 301.725V299.725H1026.47V301.725V303.725H1055.1V301.725ZM1026.47 301.725L1025.96 299.79L1005.53 305.138L1006.03 307.073L1006.54 309.008L1026.97 303.659L1026.47 301.725ZM1006.03 307.073L1005.53 305.138L885.997 336.425L886.504 338.359L887.01 340.294L1006.54 309.008L1006.03 307.073ZM886.504 338.359L885.96 340.284C907.997 346.508 929.08 354.78 949.174 365.115L950.089 363.336L951.004 361.557C930.667 351.099 909.336 342.73 887.048 336.435L886.504 338.359ZM950.089 363.336L949.174 365.115C973.776 377.767 994.036 395.509 1009.6 418.148L1011.25 417.015L1012.9 415.882C996.952 392.69 976.185 374.508 951.004 361.557L950.089 363.336ZM1011.25 417.015L1009.6 418.148C1026.48 442.695 1033.81 472.986 1033.81 506.98H1035.81H1037.81C1037.81 472.429 1030.35 441.276 1012.9 415.882L1011.25 417.015ZM1035.81 506.98H1033.81C1033.81 540.93 1023.81 571.889 1003.87 599.015L1005.48 600.199L1007.09 601.384C1027.54 573.558 1037.81 541.766 1037.81 506.98H1035.81ZM1005.48 600.199L1003.85 599.038C984.548 626.114 957.266 646.63 923.466 661.21L924.258 663.047L925.05 664.883C959.391 650.07 987.306 629.136 1007.11 601.36L1005.48 600.199ZM924.258 663.047L923.466 661.21L923.253 661.302L924.045 663.139L924.837 664.975L925.05 664.883L924.258 663.047ZM924.045 663.139L923.28 661.291L923.066 661.379L923.83 663.228L924.595 665.076L924.809 664.987L924.045 663.139ZM923.83 663.228L923.069 661.378C888.885 675.454 849.656 682.091 805.996 682.091V684.091V686.091C850.052 686.091 889.821 679.394 924.592 665.077L923.83 663.228ZM805.996 684.091V682.091C766.948 682.091 730.488 676.003 696.891 663.486L696.192 665.36L695.494 667.234C729.589 679.937 766.528 686.091 805.996 686.091V684.091ZM696.192 665.36L696.883 663.483L696.798 663.452L696.107 665.329L695.417 667.206L695.502 667.237L696.192 665.36ZM696.107 665.329L696.835 663.466L696.75 663.433L696.022 665.296L695.294 667.159L695.379 667.192L696.107 665.329ZM696.022 665.296L696.733 663.426C663.918 650.957 635.686 633.294 612.569 610.178L611.155 611.592L609.741 613.006C633.3 636.564 662.029 654.518 695.312 667.165L696.022 665.296ZM611.155 611.592L612.574 610.182L612.432 610.039L611.013 611.448L609.594 612.858L609.736 613.001L611.155 611.592ZM611.013 611.448L612.441 610.049L612.3 609.904L610.871 611.304L609.443 612.703L609.584 612.848L611.013 611.448ZM610.871 611.304L612.306 609.91C601.835 599.132 592.666 587.599 584.821 575.331L583.136 576.408L581.451 577.486C589.446 589.988 598.785 601.732 609.437 612.697L610.871 611.304ZM583.136 576.408H581.136V677.837H583.136H585.136V576.408H583.136ZM583.136 677.837V675.837H481.068V677.837V679.837H583.136V677.837ZM481.068 677.837V675.837C452.364 675.837 426.549 667.817 406.872 648.995L405.489 650.44L404.107 651.886C424.71 671.593 451.615 679.837 481.068 679.837V677.837ZM405.489 650.44L406.872 648.995L406.647 648.78L405.265 650.226L403.882 651.671L404.107 651.886L405.489 650.44ZM405.265 650.226L406.682 648.815L406.463 648.595L405.046 650.006L403.629 651.417L403.847 651.637L405.265 650.226ZM405.046 650.006L406.46 648.592C399.133 641.264 393.365 633.066 389.008 624.169L387.212 625.049L385.416 625.928C389.962 635.213 395.986 643.774 403.632 651.42L405.046 650.006ZM387.212 625.049L385.751 623.683C377.898 632.081 369.202 639.778 359.654 646.74L360.832 648.356L362.01 649.972C371.759 642.864 380.645 634.999 388.673 626.415L387.212 625.049ZM360.832 648.356L359.656 646.739L359.613 646.77L360.789 648.388L361.965 650.005L362.008 649.974L360.832 648.356ZM360.789 648.388L359.637 646.753L359.594 646.783L360.746 648.418L361.898 650.053L361.941 650.023L360.789 648.388ZM360.746 648.418L359.574 646.798C326.706 670.574 288.2 682.091 245.22 682.091V684.091V686.091C288.95 686.091 328.297 674.36 361.918 650.038L360.746 648.418ZM245.22 684.091V682.091C196.986 682.091 153.622 669.448 116.136 643.549L114.999 645.194L113.862 646.84C152.079 673.244 196.253 686.091 245.22 686.091V684.091ZM114.999 645.194L116.138 643.551L116.04 643.482L114.9 645.126L113.761 646.77L113.86 646.838L114.999 645.194ZM114.9 645.126L116.051 643.49L115.952 643.42L114.802 645.057L113.652 646.693L113.75 646.762L114.9 645.126ZM114.802 645.057L115.953 643.421C79.8426 618.01 52.0004 584.006 32.3578 542.102L30.5469 542.951L28.736 543.8C48.6525 586.289 76.931 620.852 113.651 646.692L114.802 645.057ZM30.5469 542.951L32.3591 542.105L32.2487 541.869L30.4365 542.715L28.6243 543.561L28.7347 543.797L30.5469 542.951ZM30.4365 542.715L32.2626 541.899L32.1562 541.661L30.3301 542.477L28.504 543.292L28.6104 543.531L30.4365 542.715ZM30.3301 542.477L32.1565 541.662C13.2108 499.197 4.00006 452.049 4 400.67H2H0C5.68628e-05 452.533 9.29943 500.248 28.5036 543.291L30.3301 542.477ZM2 400.67H4C4.00002 349.837 13.2286 302.997 32.1565 260.572L30.3301 259.757L28.5036 258.942C9.32003 301.94 1.90735e-05 349.345 0 400.67H2ZM30.3301 259.757L32.1527 260.58L32.2259 260.418L30.4033 259.595L28.5807 258.771L28.5075 258.933L30.3301 259.757ZM30.4033 259.595L32.2218 260.427L32.296 260.265L30.4775 259.433L28.6591 258.6L28.5848 258.762L30.4033 259.595ZM30.4775 259.433L32.2935 260.271C51.907 217.775 79.7485 183.396 115.953 157.919L114.802 156.283L113.651 154.648C76.8223 180.564 48.5446 215.515 28.6616 258.595L30.4775 259.433ZM114.802 156.283L115.941 157.927L116.138 157.79L114.999 156.146L113.86 154.503L113.662 154.639L114.802 156.283ZM114.999 156.146L116.136 157.792C153.622 131.892 196.986 119.249 245.22 119.249V117.249V115.249C196.252 115.249 152.079 128.097 113.862 154.501L114.999 156.146ZM245.22 117.249V119.249C288.248 119.249 326.759 131.094 359.579 155.438L360.771 153.832L361.962 152.226C328.388 127.322 289.022 115.249 245.22 115.249V117.249ZM360.771 153.832L359.612 155.462C365.013 159.301 370.138 163.389 374.99 167.718L376.321 166.226L377.653 164.733C372.69 160.306 367.449 156.126 361.929 152.202L360.771 153.832ZM376.321 166.226H378.321V123.503H376.321H374.321V166.226H376.321ZM376.321 123.503V125.503H583.136V123.503V121.503H376.321V123.503ZM583.136 123.503H581.136V223.187H583.136H585.136V123.503H583.136ZM583.136 223.187L584.91 224.11C587.674 218.802 590.752 213.602 594.144 208.514L592.479 207.404L590.815 206.295C587.345 211.501 584.194 216.825 581.362 222.263L583.136 223.187ZM592.479 207.404L594.141 208.517L594.278 208.313L592.616 207.2L590.955 206.087L590.818 206.291L592.479 207.404ZM592.616 207.2L594.263 208.335L594.402 208.134L592.755 206.999L591.108 205.864L590.97 206.065L592.616 207.2ZM592.755 206.999L594.399 208.137C613.444 180.629 640.14 159.151 673.282 143.242L672.417 141.439L671.552 139.636C637.891 155.794 610.613 177.691 591.11 205.861L592.755 206.999ZM672.417 141.439L673.29 143.239L673.386 143.192L672.514 141.393L671.641 139.593L671.544 139.64L672.417 141.439ZM672.514 141.393L673.349 143.21L673.447 143.165L672.611 141.348L671.776 139.531L671.678 139.576L672.514 141.393ZM672.611 141.348L673.463 143.157C708.151 126.834 749.066 119.249 795.275 119.249V117.249V115.249C748.644 115.249 707.113 122.901 671.76 139.538L672.611 141.348ZM795.275 117.249V119.249C834.175 119.249 869.458 125.294 900.566 138.108L901.328 136.259L902.09 134.41C870.402 121.357 834.584 115.249 795.275 115.249V117.249ZM901.328 136.259L902.742 137.673L902.743 137.672L901.329 136.258L899.915 134.844L899.914 134.845L901.328 136.259ZM901.329 136.258L900.58 138.112C929.433 149.776 954.135 165.981 974.142 186.953L975.589 185.572L977.036 184.192C956.594 162.763 931.398 146.256 902.079 134.404L901.329 136.258ZM975.589 185.572H977.589V123.498H975.589H973.589V185.572H975.589ZM975.589 123.498V125.498H1042.82V123.498V121.498H975.589V123.498ZM1042.82 123.498V125.498C1046.3 125.498 1049.04 125.015 1051.29 124.132C1053.57 123.242 1055.25 121.986 1056.65 120.582L1055.24 119.168L1053.82 117.754C1052.73 118.848 1051.5 119.756 1049.83 120.407C1048.15 121.065 1045.93 121.498 1042.82 121.498V123.498ZM1055.24 119.168L1056.65 120.582C1058.05 119.178 1059.31 117.498 1060.2 115.225C1061.08 112.97 1061.57 110.23 1061.57 106.747H1059.57H1057.57C1057.57 109.864 1057.13 112.086 1056.47 113.767C1055.82 115.43 1054.92 116.66 1053.82 117.754L1055.24 119.168ZM1059.57 106.747H1061.57V2H1059.57H1057.57V106.747H1059.57ZM1059.57 2V4H1261.91V2V0H1059.57V2ZM1261.91 2H1259.91V83.5205H1261.91H1263.91V2H1261.91ZM1719.66 337.645L1720.02 335.677L1705.05 332.956L1704.7 334.924L1704.34 336.892L1719.3 339.612L1719.66 337.645ZM1704.7 334.924H1702.7V430.153H1704.7H1706.7V334.924H1704.7ZM1704.7 430.153L1702.7 430.159L1702.7 432.221L1704.7 432.215L1706.7 432.209L1706.7 430.148L1704.7 430.153ZM1704.7 432.215L1702.7 432.226C1702.95 475.678 1711.03 513.714 1727.02 546.28L1728.82 545.398L1730.61 544.517C1714.94 512.592 1706.95 475.172 1706.7 432.203L1704.7 432.215ZM1728.82 545.398L1727.04 546.319C1743.87 578.784 1767.05 604.077 1796.56 622.146L1797.61 620.44L1798.65 618.735C1769.8 601.069 1747.11 576.335 1730.59 544.478L1728.82 545.398ZM1797.61 620.44L1796.6 622.17C1826.25 639.364 1859.95 648.074 1897.65 648.342L1897.67 646.342L1897.68 644.342C1860.6 644.078 1827.59 635.52 1798.61 618.71L1797.61 620.44ZM1897.67 646.342L1897.66 648.342L1899.44 648.349L1899.45 646.349L1899.46 644.349L1897.67 644.342L1897.67 646.342ZM1899.45 646.349V648.349C1918.71 648.349 1937.68 645.238 1956.36 639.024L1955.73 637.126L1955.1 635.228C1936.82 641.31 1918.27 644.349 1899.45 644.349V646.349ZM1955.73 637.126L1956.37 639.021L1958.16 638.416L1957.52 636.521L1956.88 634.627L1955.09 635.231L1955.73 637.126ZM1957.52 636.521L1958.17 638.413C1977.56 631.748 1995.09 620.244 2010.77 603.961L2009.33 602.573L2007.89 601.186C1992.6 617.063 1975.6 628.193 1956.87 634.63L1957.52 636.521ZM2009.33 602.573L2010.77 603.961C2026.13 588.039 2038.47 566.328 2047.85 538.934L2045.96 538.285L2044.07 537.637C2034.81 564.648 2022.73 585.797 2007.89 601.185L2009.33 602.573ZM2045.96 538.285H2043.96V632.948H2045.96H2047.96V538.285H2045.96ZM2045.96 632.948L2043.96 632.941L2043.96 634.805L2045.96 634.812L2047.96 634.82L2047.96 632.956L2045.96 632.948ZM2045.96 634.812L2043.96 634.797C2043.65 673.482 2033.62 703.919 2014.08 726.33L2015.59 727.645L2017.1 728.959C2037.42 705.641 2047.64 674.19 2047.95 634.828L2045.96 634.812ZM2015.59 727.645L2014.05 726.361L2013.13 727.469L2014.66 728.753L2016.19 730.037L2017.12 728.928L2015.59 727.645ZM2014.66 728.753L2013.14 727.457C1993.97 749.991 1966.02 761.38 1928.93 761.38V763.38V765.38C1966.89 765.38 1996.08 753.684 2016.18 730.049L2014.66 728.753ZM1928.93 763.38L1928.94 761.38L1927.6 761.374L1927.59 763.374L1927.59 765.374L1928.92 765.38L1928.93 763.38ZM1927.59 763.374L1927.61 761.374C1900.45 761.134 1877.83 753.466 1859.63 738.463L1858.36 740.007L1857.09 741.55C1876.1 757.217 1899.64 765.127 1927.58 765.374L1927.59 763.374ZM1858.36 740.007L1859.64 738.471L1858.74 737.723L1857.46 739.259L1856.18 740.794L1857.08 741.542L1858.36 740.007ZM1857.46 739.259L1858.75 737.726C1840.55 722.467 1826.75 703.091 1817.33 679.554L1815.47 680.297L1813.62 681.04C1823.26 705.148 1837.44 725.081 1856.18 740.791L1857.46 739.259ZM1815.47 680.297L1814.83 678.403L1683.5 723.071L1684.15 724.965L1684.79 726.858L1816.12 682.19L1815.47 680.297ZM1684.15 724.965L1682.25 725.597C1694.25 761.585 1712.26 792.221 1736.3 817.467L1737.75 816.088L1739.2 814.709C1715.6 789.926 1697.87 759.814 1686.05 724.332L1684.15 724.965ZM1737.75 816.088L1736.3 817.468C1760.93 843.298 1790.07 862.524 1823.7 875.136L1824.41 873.264L1825.11 871.391C1792.04 858.989 1763.41 840.098 1739.2 814.708L1737.75 816.088ZM1824.41 873.264L1823.69 875.13C1857.89 888.329 1895.06 894.918 1935.18 894.918V892.918V890.918C1895.5 890.918 1858.82 884.404 1825.13 871.398L1824.41 873.264ZM1935.18 892.918V894.918C1980.53 894.918 2019.6 887.963 2052.35 873.981L2051.57 872.142L2050.78 870.302C2018.64 884.022 1980.13 890.918 1935.18 890.918V892.918ZM2051.57 872.142L2052.36 873.978L2053.9 873.314L2053.11 871.478L2052.32 869.641L2050.78 870.305L2051.57 872.142ZM2053.11 871.478L2053.91 873.311C2086.91 858.909 2113.97 839.381 2135.03 814.707L2133.51 813.408L2131.99 812.11C2111.36 836.273 2084.82 855.458 2052.31 869.644L2053.11 871.478ZM2133.51 813.408L2135.02 814.728C2156.3 790.49 2172.05 763.045 2182.28 732.408L2180.38 731.774L2178.48 731.141C2168.43 761.274 2152.94 788.252 2132.01 812.089L2133.51 813.408ZM2180.38 731.774L2182.28 732.401L2182.76 730.952L2180.86 730.325L2178.96 729.698L2178.48 731.147L2180.38 731.774ZM2180.86 730.325L2182.76 730.947C2192.64 700.742 2197.72 669.138 2198.03 636.145L2196.03 636.126L2194.03 636.107C2193.73 668.707 2188.7 699.904 2178.96 729.704L2180.86 730.325ZM2196.03 636.126L2198.03 636.135L2198.05 632.957L2196.05 632.948L2194.05 632.939L2194.03 636.117L2196.03 636.126ZM2196.05 632.948H2198.05V151.423H2196.05H2194.05V632.948H2196.05ZM2196.05 151.423V149.423H2045.96V151.423V153.423H2196.05V151.423ZM2045.96 151.423H2043.96V400.673H2045.96H2047.96V151.423H2045.96ZM2045.96 400.673H2043.96C2043.96 423.678 2040.13 443.947 2032.51 461.519L2034.35 462.314L2036.18 463.11C2044.05 444.948 2047.96 424.122 2047.96 400.673H2045.96ZM2034.35 462.314L2032.52 461.496C2024.92 478.469 2014.12 491.876 2000.14 501.777L2001.29 503.409L2002.45 505.041C2017.06 494.693 2028.3 480.703 2036.17 463.133L2034.35 462.314ZM2001.29 503.409L2000.14 501.772L1999.47 502.244L2000.62 503.881L2001.77 505.518L2002.44 505.046L2001.29 503.409ZM2000.62 503.881L1999.48 502.237C1985.71 511.781 1969.07 516.597 1949.48 516.597V518.597V520.597C1969.75 520.597 1987.21 515.602 2001.76 505.525L2000.62 503.881ZM1949.48 518.597V516.597C1921.22 516.597 1898.83 507.536 1882.07 489.533L1880.61 490.896L1879.15 492.258C1896.76 511.19 1920.28 520.597 1949.48 520.597V518.597ZM1880.61 490.896L1882.08 489.543L1881.27 488.657L1879.8 490.009L1878.32 491.361L1879.14 492.248L1880.61 490.896ZM1879.8 490.009L1881.28 488.666C1864.7 470.376 1856.16 444.645 1855.89 411.204L1853.89 411.22L1851.89 411.235C1852.16 445.325 1860.89 472.12 1878.31 491.352L1879.8 490.009ZM1853.89 411.22L1855.89 411.212L1855.89 409.599L1853.89 409.606L1851.89 409.614L1851.89 411.227L1853.89 411.22ZM1853.89 409.606H1855.89V151.423H1853.89H1851.89V409.606H1853.89ZM1853.89 151.423V149.423H1719.66V151.423V153.423H1853.89V151.423ZM1719.66 151.423H1717.66V337.645H1719.66H1721.66V151.423H1719.66ZM2018.04 632.807L2016.73 631.3C2001.5 644.593 1984.57 654.63 1965.94 661.031L1966.59 662.923L1967.24 664.814C1986.39 658.233 2003.77 647.923 2019.36 634.314L2018.04 632.807ZM1966.59 662.923L1965.94 661.031C1944.24 668.491 1922.04 672.267 1899.45 672.267V674.267V676.267C1922.5 676.267 1945.14 672.414 1967.24 664.814L1966.59 662.923ZM1899.45 674.267V672.267C1879.03 672.267 1859.47 670.016 1840.86 665.45L1840.38 667.393L1839.9 669.335C1858.85 673.983 1878.74 676.267 1899.45 676.267V674.267ZM1840.38 667.393L1838.52 668.136L1839.54 670.671L1841.39 669.928L1843.25 669.185L1842.24 666.649L1840.38 667.393ZM1841.39 669.928L1839.54 670.671C1847.33 690.159 1858.42 705.834 1872.72 718.214L1874.03 716.702L1875.34 715.19C1861.56 703.256 1850.83 688.122 1843.25 669.185L1841.39 669.928ZM1874.03 716.702L1872.74 718.225L1874.11 719.391L1875.4 717.868L1876.7 716.346L1875.33 715.18L1874.03 716.702ZM1875.4 717.868L1874.11 719.397L1874.14 719.423L1875.43 717.895L1876.72 716.366L1876.69 716.34L1875.4 717.868ZM1875.43 717.895L1874.12 719.4L1874.15 719.427L1875.46 717.922L1876.78 716.417L1876.75 716.389L1875.43 717.895ZM1875.46 717.922L1874.18 719.45C1887.88 731.014 1905.51 737.462 1928.93 737.462V735.462V733.462C1906.31 733.462 1889.64 727.261 1876.75 716.393L1875.46 717.922ZM1928.93 735.462V737.462C1961.3 737.462 1982 727.626 1995.6 711.152L1994.05 709.879L1992.51 708.606C1979.85 723.952 1960.4 733.462 1928.93 733.462V735.462ZM1994.05 709.879L1995.59 711.153L1995.84 710.86L1994.29 709.586L1992.75 708.312L1992.51 708.605L1994.05 709.879ZM1994.29 709.586L1995.81 710.896L1996.05 710.609L1994.54 709.299L1993.03 707.988L1992.78 708.276L1994.29 709.586ZM1994.54 709.299L1996.05 710.613C2011.09 693.358 2020.04 668.481 2020.04 632.948H2018.04H2016.04C2016.04 667.802 2007.28 691.65 1993.04 707.985L1994.54 709.299ZM2018.04 632.948H2020.04V632.807H2018.04H2016.04V632.948H2018.04ZM245.22 145.167V143.167C201.376 143.167 162.853 154.586 129.731 177.47L130.868 179.115L132.005 180.761C164.397 158.381 202.11 147.167 245.22 147.167V145.167ZM130.868 179.115L129.717 177.48C97.2443 200.331 72.0113 231.289 54.0093 270.294L55.8252 271.132L57.6411 271.97C75.3736 233.55 100.17 203.163 132.019 180.751L130.868 179.115ZM55.8252 271.132L53.9956 270.324L53.1928 272.142L55.0225 272.95L56.8521 273.758L57.6548 271.94L55.8252 271.132ZM55.0225 272.95L53.1902 272.148C36.3307 310.676 27.918 353.527 27.918 400.67H29.918H31.918C31.918 354.01 40.2422 311.715 56.8547 273.752L55.0225 272.95ZM29.918 400.67H27.918C27.918 449.154 36.5979 492.914 53.9987 531.916L55.8252 531.102L57.6517 530.287C40.5092 491.864 31.918 448.669 31.918 400.67H29.918ZM55.8252 531.102L54.0143 531.95C72.0186 570.359 97.2513 601.015 129.717 623.861L130.868 622.226L132.019 620.59C100.163 598.173 75.3665 568.077 57.6361 530.253L55.8252 531.102ZM130.868 622.226L129.731 623.871C162.335 646.397 200.173 657.814 243.169 658.165L243.186 656.165L243.202 654.165C200.933 653.82 163.891 642.611 132.005 620.58L130.868 622.226ZM243.186 656.165L243.178 658.165L245.212 658.173L245.22 656.173L245.227 654.173L243.193 654.165L243.186 656.165ZM245.22 656.173V658.173C283.109 658.173 316.139 648.258 344.223 628.372L343.067 626.74L341.912 625.108C314.574 644.465 282.372 654.173 245.22 654.173V656.173ZM343.067 626.74L344.231 628.367L345.547 627.426L344.384 625.799L343.22 624.172L341.904 625.113L343.067 626.74ZM344.384 625.799L345.562 627.415C374.524 606.297 394.715 577.337 406.149 540.63L404.239 540.035L402.33 539.44C391.131 575.393 371.419 603.61 343.205 624.183L344.384 625.799ZM404.239 540.035H402.239V573.983H404.239H406.239V540.035H404.239ZM404.239 573.983H402.239C402.239 598.207 409.216 617.524 423.372 631.68L424.786 630.266L426.2 628.851C412.96 615.611 406.239 597.405 406.239 573.983H404.239ZM424.786 630.266L423.404 631.711C437.341 645.042 456.266 651.71 479.938 651.915L479.955 649.915L479.972 647.915C457.054 647.717 439.199 641.284 426.169 628.82L424.786 630.266ZM479.955 649.915L479.946 651.915L481.06 651.92L481.068 649.92L481.077 647.92L479.964 647.915L479.955 649.915ZM481.068 649.92V651.92H555.218V649.92V647.92H481.068V649.92ZM555.218 649.92H557.218V512.954H555.218H553.218V649.92H555.218ZM555.218 512.954L557.115 512.322L552.765 499.271L550.867 499.903L548.97 500.536L553.32 513.587L555.218 512.954ZM550.867 499.903L551.305 501.855L555.656 500.878L555.218 498.927L554.78 496.975L550.429 497.952L550.867 499.903ZM555.218 498.927H557.218V151.421H555.218H553.218V498.927H555.218ZM555.218 151.421V149.421H404.239V151.421V153.421H555.218V151.421ZM404.239 151.421H402.239V262.198H404.239H406.239V151.421H404.239ZM404.239 262.198L406.151 261.612C394.72 224.31 374.525 195.334 345.54 174.803L344.384 176.435L343.228 178.067C371.417 198.034 391.127 226.235 402.327 262.784L404.239 262.198ZM344.384 176.435L345.578 174.83C317.653 154.035 284.771 143.499 247.02 143.175L247.003 145.175L246.986 147.175C283.966 147.492 316.005 157.795 343.189 178.039L344.384 176.435ZM247.003 145.175L247.012 143.175L245.228 143.167L245.22 145.167L245.211 147.167L246.994 147.175L247.003 145.175ZM795.275 145.167V143.167C751.588 143.167 714.354 150.347 683.646 164.798L684.498 166.607L685.35 168.417C715.391 154.28 752.009 147.167 795.275 147.167V145.167ZM684.498 166.607L683.633 164.804C653.594 179.223 630.374 198.193 614.065 221.751L615.709 222.89L617.353 224.028C633.205 201.131 655.844 182.58 685.364 168.41L684.498 166.607ZM615.709 222.89L614.04 221.787L613.32 222.878L614.988 223.98L616.657 225.083L617.378 223.992L615.709 222.89ZM614.988 223.98L613.314 222.886C598.091 246.167 590.481 272.094 590.481 300.613H592.481H594.481C594.481 272.85 601.876 247.688 616.662 225.075L614.988 223.98ZM592.481 300.613L590.481 300.62L590.486 302.012L592.486 302.005L594.486 301.998L594.481 300.606L592.481 300.613ZM592.486 302.005L590.486 302.019C590.69 331.443 597.306 355.535 610.505 374.133L612.136 372.976L613.767 371.818C601.169 354.067 594.686 330.845 594.486 301.991L592.486 302.005ZM612.136 372.976L610.505 374.133C623.8 392.867 641.023 407.668 662.143 418.53L663.058 416.751L663.972 414.972C643.402 404.393 626.677 390.01 613.767 371.818L612.136 372.976ZM663.058 416.751L662.184 418.55C683.168 428.742 705.348 436.534 728.717 441.927L729.167 439.979L729.617 438.03C706.532 432.702 684.637 425.009 663.931 414.952L663.058 416.751ZM729.167 439.979L728.717 441.927C751.946 447.288 773.983 452.35 794.83 457.115L795.275 455.165L795.721 453.215C774.878 448.451 752.843 443.39 729.617 438.03L729.167 439.979ZM795.275 455.165L794.842 457.117C816.177 461.859 833.253 467.763 846.133 474.789L847.091 473.033L848.049 471.277C834.724 464.009 817.255 458.001 795.709 453.213L795.275 455.165ZM847.091 473.033L846.196 474.822C852.497 477.972 857.109 481.923 860.152 486.627C863.191 491.323 864.745 496.89 864.745 503.407H866.745H868.745C868.745 496.226 867.023 489.882 863.511 484.454C860.003 479.033 854.788 474.646 847.985 471.244L847.091 473.033ZM866.745 503.407L864.745 503.392L864.741 503.922L866.741 503.937L868.741 503.951L868.745 503.422L866.745 503.407ZM866.741 503.937L864.741 503.907C864.587 514.268 859.619 523.39 849.436 531.31L850.664 532.889L851.892 534.467C862.815 525.972 868.565 515.792 868.741 503.966L866.741 503.937ZM850.664 532.889L849.493 531.267C839.243 538.67 824.53 542.502 805.103 542.502V544.502V546.502C824.982 546.502 840.644 542.592 851.835 534.51L850.664 532.889ZM805.103 544.502V542.502C785.176 542.502 768.307 537.817 754.396 528.544L753.287 530.208L752.178 531.872C766.855 541.657 784.53 546.502 805.103 546.502V544.502ZM753.287 530.208L754.476 528.6C741.173 518.767 732.495 505.48 728.43 488.644L726.486 489.113L724.542 489.583C728.816 507.289 738.005 521.4 752.098 531.816L753.287 530.208ZM726.486 489.113L726.049 487.162L586.683 518.429L587.121 520.381L587.559 522.332L726.924 491.065L726.486 489.113ZM587.121 520.381L585.224 521.013C594.255 548.108 609.009 572.19 629.462 593.244L630.896 591.851L632.331 590.457C612.285 569.821 597.854 546.256 589.018 519.748L587.121 520.381ZM630.896 591.851L629.482 593.265C649.953 613.736 675.216 629.664 705.229 641.069L705.939 639.199L706.65 637.33C677.105 626.103 652.339 610.465 632.311 590.436L630.896 591.851ZM705.939 639.199L705.241 641.073C735.864 652.482 769.456 658.173 805.996 658.173V656.173V654.173C769.876 654.173 736.763 648.548 706.638 637.325L705.939 639.199ZM805.996 656.173V658.173C847.289 658.173 883.293 651.89 913.962 639.261L913.2 637.412L912.439 635.563C882.358 647.949 846.893 654.173 805.996 654.173V656.173ZM913.2 637.412L913.992 639.249C944.638 626.029 968.183 607.952 984.513 584.969L982.883 583.811L981.252 582.652C965.421 604.933 942.511 622.59 912.408 635.576L913.2 637.412ZM982.883 583.811L984.493 584.997C1001.16 562.375 1009.63 536.801 1009.89 508.337L1007.89 508.318L1005.89 508.3C1005.64 535.935 997.435 560.689 981.273 582.624L982.883 583.811ZM1007.89 508.318L1009.89 508.329L1009.9 506.991L1007.9 506.98L1005.9 506.97L1005.89 508.308L1007.89 508.318ZM1007.9 506.98H1009.9C1009.9 476.806 1003.49 451.967 990.514 432.615L988.853 433.729L987.191 434.842C999.608 453.359 1005.9 477.356 1005.9 506.98H1007.9ZM988.853 433.729L990.507 432.605L989.898 431.708L988.243 432.831L986.589 433.955L987.198 434.852L988.853 433.729ZM988.243 432.831L989.891 431.698C976.807 412.666 959.909 397.727 939.224 386.897L938.296 388.669L937.368 390.441C957.483 400.973 973.884 415.475 986.595 433.964L988.243 432.831ZM938.296 388.669L939.217 386.894L938.243 386.388L937.321 388.163L936.4 389.938L937.375 390.444L938.296 388.669ZM937.321 388.163L938.236 386.385C917.255 375.594 895.078 367.203 871.709 361.211L871.212 363.148L870.715 365.086C893.801 371.005 915.697 379.291 936.407 389.942L937.321 388.163ZM871.212 363.148L871.755 361.224C849.953 355.074 829.193 349.709 809.478 345.13L809.025 347.078L808.573 349.026C828.221 353.59 848.92 358.939 870.669 365.073L871.212 363.148ZM809.025 347.078L809.474 345.129L805.551 344.226L805.103 346.175L804.654 348.124L808.577 349.027L809.025 347.078ZM805.103 346.175L805.548 344.225C784.812 339.485 768.027 333.582 755.138 326.552L754.181 328.308L753.223 330.063C766.54 337.327 783.703 343.335 804.657 348.125L805.103 346.175ZM754.181 328.308L755.198 326.586C742.588 319.134 736.526 309.308 736.526 297.039L734.526 297.039L732.526 297.039C732.527 310.975 739.568 321.996 753.163 330.029L754.181 328.308ZM734.526 297.039L736.526 297.039C736.526 286.103 740.726 277.381 749.182 270.698L747.941 269.129L746.701 267.56C737.272 275.012 732.526 284.897 732.526 297.039L734.526 297.039ZM747.941 269.129L749.162 270.714L750.041 270.037L748.82 268.452L747.6 266.867L746.721 267.544L747.941 269.129ZM748.82 268.452L750.02 270.052C759.051 263.279 772.836 259.731 791.702 259.731V257.731V255.731C772.451 255.731 757.648 259.331 747.62 266.852L748.82 268.452ZM791.702 257.731L791.687 259.731L793.629 259.746L793.645 257.746L793.66 255.746L791.717 255.732L791.702 257.731ZM793.645 257.746L793.614 259.746C813.234 260.047 828.791 265.017 840.472 274.473L841.73 272.919L842.989 271.364C830.438 261.204 813.938 256.058 793.675 255.746L793.645 257.746ZM841.73 272.919L840.472 274.473C852.569 284.266 860.396 297.826 863.89 315.299L865.852 314.907L867.813 314.515C864.161 296.254 855.906 281.822 842.989 271.364L841.73 272.919ZM865.852 314.907L866.358 316.842L976.095 288.118L975.589 286.184L975.082 284.249L865.345 312.972L865.852 314.907ZM975.589 286.184H977.589V229.335H975.589H973.589V286.184H975.589ZM975.589 229.335L977.242 228.209C972.409 221.118 967.033 214.422 961.113 208.12L959.655 209.489L958.198 210.859C963.976 217.01 969.222 223.544 973.936 230.461L975.589 229.335ZM959.655 209.489L961.155 208.166C943.059 187.657 919.861 171.705 891.616 160.286L890.866 162.141L890.117 163.995C917.855 175.208 940.517 190.822 958.156 210.812L959.655 209.489ZM890.866 162.141L891.63 160.292C863.943 148.856 831.81 143.167 795.275 143.167V145.167V147.167C831.401 147.167 862.996 152.793 890.103 163.989L890.866 162.141ZM1087.48 106.747H1085.48C1085.48 119.384 1081.48 129.575 1073.56 137.495L1074.98 138.909L1076.39 140.323C1085.15 131.567 1089.48 120.316 1089.48 106.747H1087.48ZM1074.98 138.909L1073.56 137.495C1065.64 145.415 1055.45 149.416 1042.82 149.416V151.416V153.416C1056.38 153.416 1067.63 149.08 1076.39 140.323L1074.98 138.909ZM1042.82 151.416V149.416H1003.51V151.416V153.416H1042.82V151.416ZM1003.51 151.416H1001.51V221.099H1003.51H1005.51V151.416H1003.51ZM1003.51 221.099L1001.8 222.147C1011.36 237.677 1018.72 254.667 1023.9 273.017L1025.83 272.473L1027.75 271.929C1022.47 253.244 1014.97 235.913 1005.21 220.051L1003.51 221.099ZM1025.83 272.473L1023.9 273.016L1024.28 274.351L1026.21 273.808L1028.13 273.264L1027.75 271.929L1025.83 272.473ZM1026.21 273.808V275.808H1083.02V273.808V271.808H1026.21V273.808ZM1083.02 273.808H1081.02V480.175H1083.02H1085.02V273.808H1083.02ZM1083.02 480.175H1081.02C1081.02 537.679 1095.7 582.022 1125.35 612.886L1126.79 611.5L1128.23 610.114C1099.52 580.229 1085.02 537.022 1085.02 480.175H1083.02ZM1126.79 611.5L1125.36 612.9C1154.57 642.698 1196.27 657.696 1250.18 658.157L1250.2 656.157L1250.21 654.157C1197.03 653.702 1156.47 638.929 1128.22 610.1L1126.79 611.5ZM1250.2 656.157L1250.19 658.157L1252.75 658.169L1252.76 656.169L1252.77 654.169L1250.21 654.157L1250.2 656.157ZM1252.76 656.169V658.169C1271.98 658.169 1289.45 655.765 1305.16 650.933L1304.57 649.021L1303.98 647.11C1288.72 651.807 1271.65 654.169 1252.76 654.169V656.169ZM1304.57 649.021L1305.2 650.919C1320.88 645.692 1335.73 639.338 1349.73 631.854L1348.79 630.09L1347.85 628.326C1334.05 635.699 1319.41 641.966 1303.94 647.124L1304.57 649.021ZM1348.79 630.09L1349.74 631.851L1351.08 631.128L1350.13 629.367L1349.19 627.606L1347.84 628.329L1348.79 630.09ZM1350.13 629.367L1352.03 628.726L1314.51 517.948L1312.61 518.59L1310.72 519.231L1348.24 630.009L1350.13 629.367ZM1312.61 518.59L1311.55 516.894C1306.92 519.788 1302 522.103 1296.79 523.84L1297.42 525.737L1298.06 527.635C1303.57 525.798 1308.77 523.348 1313.67 520.286L1312.61 518.59ZM1297.42 525.737L1296.94 523.797C1292.36 524.941 1287.17 525.523 1281.34 525.523V527.523V529.523C1287.43 529.523 1292.96 528.916 1297.91 527.678L1297.42 525.737ZM1281.34 527.523V525.523C1268.67 525.523 1257.81 521.79 1248.66 514.358L1247.4 515.91L1246.14 517.462C1256.05 525.515 1267.82 529.523 1281.34 529.523V527.523ZM1247.4 515.91L1248.76 514.448C1240.56 506.797 1236.27 496.471 1236.01 483.253L1234.01 483.293L1232.01 483.333C1232.29 497.449 1236.92 508.868 1246.03 517.372L1247.4 515.91ZM1234.01 483.293L1236.01 483.274L1236 481.943L1234 481.962L1232 481.981L1232.01 483.312L1234.01 483.293ZM1234 481.962H1236V273.808H1234H1232V481.962H1234ZM1234 273.808V275.808H1333.16V273.808V271.808H1234V273.808ZM1333.16 273.808H1335.16V151.416H1333.16H1331.16V273.808H1333.16ZM1333.16 151.416V149.416H1177.71V151.416V153.416H1333.16V151.416ZM1177.71 151.416L1178.11 153.377C1190.32 150.935 1200.76 146.033 1209.39 138.641L1208.09 137.122L1206.79 135.604C1198.74 142.504 1188.93 147.132 1177.32 149.455L1177.71 151.416ZM1208.09 137.122L1209.4 138.633C1218.24 130.97 1224.85 122.407 1229.16 112.935L1227.34 112.105L1225.52 111.276C1221.48 120.159 1215.24 128.273 1206.78 135.611L1208.09 137.122ZM1227.34 112.105L1229.17 112.921L1229.57 112.03L1227.74 111.215L1225.92 110.4L1225.52 111.29L1227.34 112.105ZM1227.74 111.215L1229.59 111.976C1233.7 102.003 1235.86 92.7815 1235.99 84.3357L1233.99 84.3047L1231.99 84.2736C1231.87 92.091 1229.86 100.81 1225.89 110.453L1227.74 111.215ZM1233.99 84.3047L1235.99 84.3221L1236 83.5379L1234 83.5205L1232 83.5031L1231.99 84.2873L1233.99 84.3047ZM1234 83.5205H1236V29.918H1234H1232V83.5205H1234ZM1234 29.918V27.918H1087.48V29.918V31.918H1234V29.918ZM1087.48 29.918H1085.48V106.747H1087.48H1089.48V29.918H1087.48ZM1676.78 147.47L1676.64 145.475C1641.28 147.929 1611.61 159.206 1587.71 179.381L1589 180.909L1590.3 182.437C1613.45 162.885 1642.29 151.869 1676.92 149.465L1676.78 147.47ZM1589 180.909L1587.73 179.364C1560.57 201.702 1541.61 232.454 1530.8 271.498L1532.72 272.032L1534.65 272.566C1545.28 234.186 1563.84 204.189 1590.28 182.454L1589 180.909ZM1532.72 272.032H1534.72V151.428H1532.72H1530.72V272.032H1532.72ZM1532.72 151.428V149.428H1381.74V151.428V153.428H1532.72V151.428ZM1381.74 151.428H1379.74V635.667H1381.74H1383.74V151.428H1381.74ZM1381.74 635.667L1379.85 636.309L1382.23 643.347L1384.13 642.705L1386.02 642.063L1383.64 635.025L1381.74 635.667ZM1384.13 642.705L1383.17 640.946L1380.79 642.237L1381.74 643.996L1382.7 645.755L1385.08 644.464L1384.13 642.705ZM1381.74 643.996H1379.74V649.927H1381.74H1383.74V643.996H1381.74ZM1381.74 649.927V651.927H1532.72V649.927V647.927H1381.74V649.927ZM1532.72 649.927H1534.72V435.519H1532.72H1530.72V649.927H1532.72ZM1532.72 435.519L1534.72 435.524L1534.73 434.16L1532.73 434.154L1530.73 434.149L1530.72 435.513L1532.72 435.519ZM1532.73 434.154L1534.73 434.166C1534.9 405.837 1540.51 382.235 1551.43 363.261L1549.7 362.263L1547.96 361.265C1536.61 380.984 1530.9 405.31 1530.73 434.142L1532.73 434.154ZM1549.7 362.263L1551.44 363.238C1562.42 343.593 1576.77 328.847 1594.48 318.923L1593.5 317.179L1592.52 315.434C1574.1 325.755 1559.25 341.066 1547.95 361.287L1549.7 362.263ZM1593.5 317.179L1594.47 318.928L1595.33 318.451L1594.36 316.701L1593.4 314.952L1592.53 315.429L1593.5 317.179ZM1594.36 316.701L1595.37 318.431C1613.52 307.893 1633.42 302.62 1655.11 302.62V300.62V298.62C1632.74 298.62 1612.14 304.068 1593.36 314.972L1594.36 316.701ZM1655.11 300.62V302.62C1661 302.62 1666.89 302.915 1672.78 303.504L1672.98 301.514L1673.18 299.524C1667.16 298.921 1661.14 298.62 1655.11 298.62V300.62ZM1672.98 301.514L1672.78 303.504C1674.02 303.628 1675.27 303.767 1676.54 303.918L1676.78 301.932L1677.01 299.946C1675.73 299.793 1674.45 299.65 1673.18 299.524L1672.98 301.514ZM1676.78 301.932H1678.78V147.47H1676.78H1674.78V301.932H1676.78ZM2223.97 632.948H2221.97C2221.97 636.261 2221.92 639.563 2221.83 642.854L2223.83 642.908L2225.83 642.963C2225.92 639.636 2225.97 636.298 2225.97 632.948H2223.97ZM2223.83 642.908L2225.51 643.993L2346.92 455.863L2345.24 454.778L2343.56 453.694L2222.15 641.824L2223.83 642.908ZM2345.24 454.778V452.778H2263.54V454.778V456.778H2345.24V454.778ZM2263.54 454.778H2265.54V328.813H2263.54H2261.54V454.778H2263.54ZM2263.54 328.813V330.813H2337.56V328.813V326.813H2263.54V328.813ZM2337.56 328.813L2339.21 327.676L2225.61 163.462L2223.97 164.6L2222.32 165.737L2335.92 329.951L2337.56 328.813ZM2223.97 164.6H2221.97V632.948H2223.97H2225.97V164.6H2223.97ZM1261.91 481.962H1259.91C1259.91 489.634 1261.88 493.633 1264.39 496.273L1265.84 494.896L1267.29 493.52C1265.64 491.784 1263.91 488.856 1263.91 481.962H1261.91ZM1265.84 494.896L1264.64 496.499C1269.05 499.791 1274.27 501.605 1281.34 501.605V499.605V497.605C1275.05 497.605 1270.69 496.021 1267.04 493.294L1265.84 494.896ZM1281.34 499.605V501.605C1285 501.605 1287.88 501.288 1290.09 500.832L1289.68 498.873L1289.28 496.914C1287.37 497.307 1284.78 497.605 1281.34 497.605V499.605ZM1289.68 498.873L1290.36 500.753C1293.36 499.665 1296.19 498.289 1298.88 496.612L1297.82 494.916L1296.76 493.22C1294.31 494.746 1291.74 496 1289 496.993L1289.68 498.873ZM1297.82 494.916L1298.88 496.612L1328.8 477.912L1327.74 476.216L1326.68 474.52L1296.76 493.22L1297.82 494.916ZM1327.74 476.216L1325.84 476.857L1337.16 510.275L1339.05 509.634L1340.95 508.992L1329.63 475.574L1327.74 476.216ZM1339.05 509.634L1337.16 510.275L1351.93 553.886L1353.83 553.244L1355.72 552.603L1340.95 508.992L1339.05 509.634ZM1353.83 553.244H1355.83V301.725H1353.83H1351.83V553.244H1353.83ZM1353.83 301.725V299.725H1261.91V301.725V303.725H1353.83V301.725ZM1261.91 301.725H1259.91V481.962H1261.91H1263.91V301.725H1261.91ZM296.193 276.507L296.161 278.507C314.757 278.807 331.962 283.766 347.813 293.389L348.851 291.68L349.889 289.97C333.429 279.977 315.529 274.819 296.226 274.507L296.193 276.507ZM348.851 291.68L347.813 293.389C364.165 303.318 377.328 317.342 387.298 335.522L389.052 334.561L390.805 333.599C380.526 314.854 366.888 300.291 349.889 289.97L348.851 291.68ZM389.052 334.561L387.298 335.522C397.23 353.633 402.239 375.324 402.239 400.67H404.239H406.239C406.239 374.796 401.123 352.414 390.805 333.599L389.052 334.561ZM404.239 400.67L402.239 400.658L402.225 403.103L404.225 403.115L406.225 403.127L406.239 400.682L404.239 400.67ZM404.225 403.115L402.225 403.091C401.921 427.99 396.916 449.172 387.298 466.711L389.052 467.673L390.805 468.635C400.804 450.402 405.915 428.544 406.224 403.14L404.225 403.115ZM389.052 467.673L387.305 466.698L386.346 468.416L388.093 469.391L389.839 470.366L390.798 468.648L389.052 467.673ZM388.093 469.391L386.354 468.403C376.508 485.735 363.674 498.887 347.858 507.925L348.851 509.661L349.843 511.398C366.337 501.973 379.664 488.277 389.832 470.379L388.093 469.391ZM348.851 509.661L347.873 507.916L346.305 508.795L347.282 510.54L348.26 512.285L349.828 511.406L348.851 509.661ZM347.282 510.54L346.318 508.788C330.376 517.564 313.066 521.955 294.354 521.955V523.955V525.955C313.722 525.955 331.698 521.402 348.247 512.292L347.282 510.54ZM294.354 523.955L294.37 521.955L292.532 521.94L292.516 523.94L292.5 525.94L294.339 525.955L294.354 523.955ZM292.516 523.94L292.546 521.941C274.509 521.666 257.511 517.28 241.528 508.775L240.589 510.54L239.649 512.306C256.19 521.109 273.811 525.656 292.485 525.94L292.516 523.94ZM240.589 510.54L241.541 508.781L239.918 507.902L238.966 509.661L238.013 511.42L239.637 512.299L240.589 510.54ZM238.966 509.661L239.958 507.925C223.633 498.596 210.483 484.883 200.518 466.711L198.765 467.673L197.011 468.635C207.296 487.388 220.947 501.668 237.974 511.398L238.966 509.661ZM198.765 467.673L200.542 466.756C191.484 449.207 186.77 428.009 186.484 403.092L184.484 403.115L182.485 403.138C182.776 428.526 187.582 450.367 196.987 468.59L198.765 467.673ZM184.484 403.115L186.484 403.104L186.471 400.659L184.471 400.67L182.471 400.681L182.484 403.126L184.484 403.115ZM184.471 400.67H186.471C186.471 375.306 191.189 353.599 200.542 335.478L198.765 334.561L196.987 333.643C187.282 352.448 182.471 374.814 182.471 400.67H184.471ZM198.765 334.561L200.518 335.522C210.332 317.626 223.241 303.757 239.239 293.858L238.187 292.157L237.134 290.456C220.503 300.747 207.13 315.147 197.011 333.599L198.765 334.561ZM238.187 292.157L239.231 293.863L240.011 293.385L238.966 291.68L237.921 289.974L237.142 290.452L238.187 292.157ZM238.966 291.68L240.004 293.389C256.355 283.462 274.456 278.492 294.354 278.492V276.492V274.492C273.753 274.492 254.929 279.648 237.928 289.97L238.966 291.68ZM294.354 276.492L294.339 278.492L296.177 278.507L296.193 276.507L296.209 274.507L294.37 274.492L294.354 276.492ZM753.625 482.562L751.681 483.032C754.425 494.402 759.865 502.65 768.129 508.941L769.341 507.35L770.552 505.758C763.058 500.054 758.109 492.617 755.569 482.093L753.625 482.562ZM769.341 507.35L768.254 509.028C777.493 515.01 789.374 518.585 805.103 518.585V516.585V514.585C790.006 514.585 778.912 511.164 770.428 505.671L769.341 507.35ZM805.103 516.585V518.585C821.361 518.585 830.352 515.402 835.089 512.158L833.959 510.508L832.829 508.858C829.001 511.479 820.912 514.585 805.103 514.585V516.585ZM833.959 510.508L835.211 512.068C837.837 509.96 839.282 508.206 840.048 506.708C840.86 505.119 840.827 503.959 840.827 503.407L838.827 503.407L836.827 503.407C836.827 503.772 836.859 504.157 836.486 504.887C836.067 505.707 835.078 507.045 832.707 508.948L833.959 510.508ZM838.827 503.407H840.827C840.827 502.057 840.668 501.187 840.527 500.676L838.599 501.206L836.67 501.736C836.706 501.866 836.827 502.375 836.827 503.407H838.827ZM838.599 501.206L840.527 500.676C840.392 500.185 840.234 499.87 840.072 499.62L838.393 500.706L836.713 501.792C836.712 501.79 836.701 501.773 836.688 501.75C836.675 501.727 836.665 501.707 836.658 501.691C836.645 501.661 836.652 501.669 836.67 501.736L838.599 501.206ZM838.393 500.706L840.073 499.621C840.073 499.621 840.056 499.594 840.033 499.561C840.011 499.529 839.985 499.492 839.955 499.45C839.893 499.367 839.817 499.27 839.722 499.161C839.533 498.942 839.274 498.678 838.921 498.378C838.216 497.779 837.139 497.034 835.5 496.214L834.605 498.003L833.711 499.792C835.113 500.493 835.91 501.068 836.328 501.425C836.537 501.602 836.652 501.725 836.701 501.782C836.725 501.81 836.734 501.823 836.731 501.819C836.73 501.817 836.726 501.811 836.72 501.803C836.714 501.794 836.707 501.783 836.713 501.791L838.393 500.706ZM834.605 498.003L835.5 496.214L835.055 495.991L834.16 497.78L833.266 499.569L833.711 499.792L834.605 498.003ZM834.16 497.78L835.117 496.024L834.679 495.786L833.723 497.542L832.766 499.298L833.204 499.537L834.16 497.78ZM833.723 497.542L834.68 495.786C824.457 490.21 809.729 484.927 789.654 480.466L789.22 482.418L788.786 484.37C808.65 488.785 822.986 493.964 832.765 499.298L833.723 497.542ZM789.22 482.418L789.634 480.461L789.551 480.444L789.137 482.4L788.722 484.357L788.805 484.375L789.22 482.418ZM789.137 482.4L789.6 480.455L789.518 480.435L789.055 482.381L788.591 484.326L788.673 484.346L789.137 482.4ZM789.055 482.381L789.5 480.431C777.385 477.662 764.868 474.791 751.95 471.821L751.502 473.771L751.054 475.72C763.973 478.69 776.491 481.561 788.609 484.331L789.055 482.381ZM751.502 473.771L749.558 474.24L751.681 483.032L753.625 482.562L755.569 482.093L753.446 473.301L751.502 473.771ZM294.354 304.41V302.41C278.66 302.41 264.88 306.267 252.417 313.833L253.455 315.543L254.493 317.253C266.306 310.081 279.363 306.41 294.354 306.41V304.41ZM253.455 315.543L252.417 313.833C240.026 321.357 229.756 332.067 221.666 346.705L223.416 347.673L225.166 348.64C232.946 334.564 242.744 324.386 254.493 317.253L253.455 315.543ZM223.416 347.673L221.635 346.763C214.493 360.744 210.389 378.417 210.389 400.67H212.389H214.389C214.389 378.906 218.402 361.885 225.197 348.583L223.416 347.673ZM212.389 400.67H210.389C210.389 423.621 214.533 441.562 221.636 455.47L223.417 454.561L225.198 453.651C218.448 440.432 214.389 423.148 214.389 400.67H212.389ZM223.417 454.561L221.667 455.528C229.654 469.975 239.686 480.176 251.648 487.055L252.646 485.321L253.643 483.588C242.371 477.106 232.835 467.463 225.167 453.593L223.417 454.561ZM252.646 485.321L251.683 487.075C265.077 494.424 279.171 498.037 294.354 498.037V496.037V494.037C279.846 494.037 266.414 490.595 253.608 483.568L252.646 485.321ZM294.354 496.037V498.037C309.608 498.037 323.326 494.396 335.991 487.158L334.999 485.422L334.007 483.685C321.96 490.569 308.929 494.037 294.354 494.037V496.037ZM334.999 485.422L335.991 487.158C348.12 480.228 358.272 469.898 366.327 455.211L364.573 454.249L362.82 453.287C355.085 467.392 345.434 477.155 334.007 483.685L334.999 485.422ZM364.573 454.249L366.327 455.211C373.904 441.393 378.321 423.569 378.321 400.67H376.321H374.321C374.321 423.057 370.004 440.186 362.82 453.287L364.573 454.249ZM376.321 400.67H378.321C378.321 378.481 373.949 360.922 366.327 347.023L364.573 347.984L362.82 348.946C370.056 362.142 374.321 379.01 374.321 400.67H376.321ZM364.573 347.984L366.327 347.023C358.21 332.221 347.88 321.411 335.399 313.833L334.361 315.543L333.323 317.253C345.157 324.437 355.013 334.71 362.82 348.946L364.573 347.984ZM334.361 315.543L335.399 313.833C322.81 306.19 309.302 302.41 294.354 302.41V304.41V306.41C308.576 306.41 321.364 309.992 333.323 317.253L334.361 315.543ZM583.136 492.663L583.574 494.615L710.947 466.037L710.509 464.086L710.071 462.134L582.698 490.712L583.136 492.663ZM710.509 464.086L711.029 462.155C690.421 456.608 670.646 449.25 651.734 440.064L650.86 441.863L649.987 443.662C669.131 452.961 689.143 460.406 709.989 466.017L710.509 464.086ZM650.86 441.863L651.735 440.065L651.448 439.925L650.573 441.724L649.698 443.522L649.986 443.662L650.86 441.863ZM650.573 441.724L651.49 439.946L651.205 439.799L650.289 441.577L649.373 443.355L649.657 443.501L650.573 441.724ZM650.289 441.577L651.204 439.799C626.799 427.248 606.593 409.948 590.999 387.975L589.368 389.133L587.737 390.29C603.715 412.805 624.421 430.522 649.374 443.356L650.289 441.577ZM589.368 389.133L590.999 387.975C588.796 384.871 586.756 381.668 584.872 378.376L583.136 379.369L581.4 380.363C583.348 383.765 585.457 387.077 587.737 390.29L589.368 389.133ZM583.136 379.369H581.136V492.663H583.136H585.136V379.369H583.136ZM791.702 285.649V283.649C775.134 283.649 767.436 286.888 764.371 289.186L765.571 290.786L766.771 292.386C768.84 290.835 775.522 287.649 791.702 287.649V285.649ZM765.571 290.786L764.371 289.186C763.039 290.185 761.96 291.194 761.282 292.549C760.604 293.905 760.444 295.374 760.444 297.039L762.444 297.039L764.444 297.039C764.444 295.58 764.599 294.86 764.859 294.339C765.12 293.818 765.604 293.261 766.771 292.386L765.571 290.786ZM762.444 297.039L760.444 297.039C760.444 299.042 760.876 300.083 761.383 300.89L763.076 299.826L764.769 298.762C764.686 298.629 764.628 298.523 764.575 298.335C764.515 298.12 764.444 297.73 764.444 297.039L762.444 297.039ZM763.076 299.826L761.383 300.891C761.979 301.839 763.439 303.605 766.974 305.756L768.014 304.048L769.054 302.339C765.934 300.441 764.971 299.082 764.769 298.762L763.076 299.826ZM768.014 304.048L767.066 305.809C777.365 311.347 791.734 316.533 810.878 320.909L811.323 318.959L811.769 317.009C792.84 312.683 778.841 307.6 768.961 302.286L768.014 304.048ZM811.323 318.959L810.878 320.909C820.061 323.008 829.456 325.274 839.062 327.705L839.553 325.766L840.043 323.827C830.409 321.389 820.984 319.116 811.769 317.009L811.323 318.959ZM839.553 325.766L841.514 325.374L840.438 319.99L838.477 320.382L836.515 320.774L837.592 326.158L839.553 325.766ZM838.477 320.382L840.438 319.99C837.883 307.217 832.61 298.88 825.423 293.063L824.165 294.617L822.907 296.172C829.275 301.327 834.119 308.793 836.515 320.774L838.477 320.382ZM824.165 294.617L825.423 293.063C818.746 287.657 808.389 283.649 791.702 283.649V285.649V287.649C807.741 287.649 817.125 291.491 822.907 296.172L824.165 294.617Z" fill="url(#paint0_linear_837_360)" mask="url(#path-1-outside-1_837_360)"/>
<defs>
<linearGradient id="paint0_linear_837_360" x1="2" y1="461.418" x2="2728.53" y2="461.418" gradientUnits="userSpaceOnUse">
<stop stop-opacity="0.3" stop-color="#ffffff"/>
<stop stop-opacity="1" offset="1" stop-color="#ffffff"/>
</linearGradient>
</defs>
</svg>
