<svg width="107" height="52" viewBox="0 0 107 52" fill="none" xmlns="http://www.w3.org/2000/svg">
<path d="M9.36905 37.2438C7.67403 37.2438 6.18798 36.8026 4.91091 35.9203C3.65706 35.038 2.68185 33.8538 1.98526 32.3677C1.3119 30.8585 0.975217 29.1634 0.975217 27.2827C0.975217 25.4251 1.3119 23.7417 1.98526 22.2324C2.68185 20.7232 3.65706 19.5274 4.91091 18.645C6.18798 17.7627 7.67403 17.3215 9.36905 17.3215C10.8551 17.3215 12.1438 17.7279 13.2351 18.5405C14.3496 19.33 15.1275 20.4445 15.5686 21.8841V17.5653H21.4548V37H18.564C17.6352 37 16.9038 36.7446 16.3697 36.2338C15.8357 35.6997 15.5686 34.9683 15.5686 34.0395V32.716C15.1275 34.1324 14.3496 35.2469 13.2351 36.0596C12.1438 36.8491 10.8551 37.2438 9.36905 37.2438ZM11.2847 32.0891C12.0509 32.0891 12.7591 31.9033 13.4092 31.5318C14.0594 31.1603 14.5818 30.6147 14.9765 29.8948C15.3713 29.175 15.5686 28.3043 15.5686 27.2827C15.5686 26.2842 15.3713 25.4251 14.9765 24.7053C14.5818 23.9855 14.0594 23.4282 13.4092 23.0335C12.7591 22.6388 12.0509 22.4414 11.2847 22.4414C10.4952 22.4414 9.77539 22.6388 9.12524 23.0335C8.4751 23.4282 7.95266 23.9855 7.55793 24.7053C7.18642 25.4251 7.00066 26.2842 7.00066 27.2827C7.00066 28.3043 7.18642 29.175 7.55793 29.8948C7.95266 30.6147 8.4751 31.1603 9.12524 31.5318C9.79861 31.9033 10.5184 32.0891 11.2847 32.0891ZM31.2317 37.2438C29.8153 37.2438 28.515 37.0232 27.3308 36.582C26.1699 36.1409 25.1946 35.5256 24.4052 34.7361C23.6157 33.9234 23.0468 32.9946 22.6986 31.9498L28.1319 30.7307C28.2944 31.4041 28.6427 31.9382 29.1768 32.3329C29.734 32.7044 30.4074 32.8902 31.1969 32.8902C31.9631 32.8902 32.5552 32.7392 32.9732 32.4374C33.3911 32.1123 33.6001 31.7292 33.6001 31.288C33.6001 30.754 33.3447 30.3592 32.8338 30.1038C32.323 29.8252 31.6497 29.593 30.8138 29.4072C30.0011 29.2215 29.142 29.0241 28.2364 28.8151C27.3308 28.6062 26.4717 28.3043 25.659 27.9096C24.8464 27.4916 24.1846 26.9228 23.6738 26.203C23.1629 25.4832 22.9075 24.5428 22.9075 23.3818C22.9075 22.2673 23.2094 21.2572 23.8131 20.3517C24.44 19.4461 25.334 18.7147 26.4949 18.1574C27.6791 17.6002 29.1187 17.3215 30.8138 17.3215C32.2301 17.3215 33.4724 17.5421 34.5405 17.9833C35.6318 18.4244 36.5257 19.0398 37.2223 19.8292C37.9421 20.5955 38.453 21.5126 38.7548 22.5807L33.5653 23.9391C33.4259 23.2425 33.1125 22.6968 32.6249 22.3021C32.1373 21.9074 31.4871 21.71 30.6744 21.71C29.9314 21.71 29.3741 21.8493 29.0026 22.1279C28.6311 22.4066 28.4454 22.7781 28.4454 23.2425C28.4454 23.7533 28.7008 24.1596 29.2116 24.4615C29.7224 24.7401 30.3842 24.9723 31.1969 25.1581C32.0096 25.3438 32.8687 25.5644 33.7742 25.8198C34.6798 26.052 35.5389 26.3771 36.3516 26.7951C37.1643 27.213 37.826 27.7935 38.3369 28.5365C38.8477 29.2795 39.1031 30.2431 39.1031 31.4273C39.1031 32.5419 38.778 33.5403 38.1279 34.4226C37.501 35.305 36.5954 36.0016 35.4112 36.5124C34.227 37 32.8338 37.2438 31.2317 37.2438ZM48.6493 37.2438C46.5131 37.2438 44.8761 36.6633 43.7384 35.5023C42.6006 34.3182 42.0317 32.6115 42.0317 30.3825V22.3369H38.9319V17.5653H51.7839V22.3369H47.9179V30.4521C47.9179 31.0094 48.092 31.4506 48.4403 31.7756C48.8118 32.0775 49.253 32.2284 49.7638 32.2284C49.996 32.2284 50.205 32.2052 50.3907 32.1587C50.5997 32.0891 50.7971 31.9962 50.9828 31.8801L52.4457 36.1989C51.8884 36.5008 51.2963 36.7562 50.6694 36.9652C50.0657 37.1509 49.3923 37.2438 48.6493 37.2438ZM40.4644 19.1326V17.5653C40.9753 17.5653 41.3932 17.4028 41.7183 17.0777C42.0433 16.7526 42.2059 16.3347 42.2059 15.8239V12.8286H47.9179V14.9183C47.9179 15.2434 47.8366 15.6033 47.6741 15.998C47.5115 16.3695 47.2561 16.7062 46.9078 17.0081C46.5827 17.2867 46.188 17.4724 45.7236 17.5653L40.4644 19.1326ZM53.678 37V17.5653H59.5641V37H53.678ZM58.6586 28.641L59.5641 22.2673C59.9821 20.758 60.7135 19.5738 61.7584 18.7147C62.8033 17.8323 64.1384 17.3912 65.7637 17.3912V23.5211C65.5083 23.4747 65.2645 23.4398 65.0323 23.4166C64.8001 23.3934 64.5679 23.3818 64.3357 23.3818C63.4766 23.3818 62.6872 23.5908 61.9674 24.0087C61.2476 24.4034 60.6671 24.9955 60.2259 25.785C59.7847 26.5512 59.5641 27.5032 59.5641 28.641H58.6586ZM79.5735 36.3382V17.5653H85.4248V36.3382C85.4248 37.6618 85.2274 38.9272 84.8327 40.1346C84.438 41.342 83.8227 42.4217 82.9868 43.3737C82.1741 44.3257 81.1292 45.0804 79.8521 45.6376C78.5751 46.1949 77.0426 46.4735 75.2547 46.4735C73.699 46.4735 72.2594 46.2181 70.9359 45.7073C69.6356 45.2197 68.5094 44.4767 67.5574 43.4782C66.6287 42.503 65.9321 41.3188 65.4677 39.9257L70.5876 38.1842C70.9591 39.113 71.5047 39.8792 72.2245 40.4829C72.9676 41.1098 73.8964 41.4233 75.0109 41.4233C76.4969 41.4233 77.6231 40.9589 78.3893 40.0301C79.1788 39.1246 79.5735 37.8939 79.5735 36.3382ZM80.2701 27.9792C80.2469 29.7904 80.0379 31.2764 79.6432 32.4374C79.2717 33.5984 78.7724 34.5039 78.1455 35.1541C77.5418 35.781 76.8684 36.2221 76.1254 36.4776C75.3824 36.733 74.6278 36.8607 73.8615 36.8607C72.3755 36.8607 71.052 36.524 69.891 35.8506C68.7532 35.1541 67.8593 34.1788 67.2091 32.925C66.5822 31.6479 66.2688 30.1503 66.2688 28.432V17.5653H72.0852V27.631C72.0852 28.9777 72.4219 30.0226 73.0953 30.7656C73.7686 31.5086 74.6742 31.8801 75.812 31.8801C76.6014 31.8801 77.2748 31.6827 77.832 31.288C78.3893 30.8933 78.8189 30.3592 79.1207 29.6859C79.4226 28.9893 79.5735 28.1882 79.5735 27.2827L80.2701 27.9792Z" fill="white"/>
<path d="M86.158 17.5653H92.7407L106.185 37H99.6021L86.158 17.5653ZM97.0944 29.3724L92.7059 37H86.3322L94.0643 25.0188L97.0944 29.3724ZM95.4226 24.8098L99.6718 17.5653H106.045L98.3134 29.1983L95.4226 24.8098Z" fill="white"/>
<path d="M88.0562 24.4796H103.346V29.3905H88.0562V24.4796Z" fill="white"/>
</svg>
