<svg width="67" height="34" viewBox="0 0 67 34" fill="none" xmlns="http://www.w3.org/2000/svg">
<path d="M5.86064 23.9707C4.80035 23.9707 3.87078 23.6947 3.07193 23.1428C2.28761 22.5908 1.67758 21.8501 1.24185 20.9205C0.820635 19.9764 0.610029 18.9161 0.610029 17.7396C0.610029 16.5777 0.820635 15.5247 1.24185 14.5806C1.67758 13.6365 2.28761 12.8885 3.07193 12.3365C3.87078 11.7846 4.80035 11.5086 5.86064 11.5086C6.79021 11.5086 7.59632 11.7628 8.27897 12.2712C8.97615 12.765 9.46272 13.4622 9.73868 14.3627V11.6611H13.4206V23.8181H11.6123C11.0314 23.8181 10.5738 23.6584 10.2398 23.3388C9.90571 23.0048 9.73868 22.5473 9.73868 21.9663V21.1384C9.46272 22.0244 8.97615 22.7215 8.27897 23.2299C7.59632 23.7237 6.79021 23.9707 5.86064 23.9707ZM7.05891 20.7462C7.53822 20.7462 7.98122 20.63 8.3879 20.3976C8.79459 20.1652 9.12139 19.8239 9.36831 19.3736C9.61522 18.9234 9.73868 18.3787 9.73868 17.7396C9.73868 17.1151 9.61522 16.5777 9.36831 16.1274C9.12139 15.6772 8.79459 15.3286 8.3879 15.0817C7.98122 14.8347 7.53822 14.7113 7.05891 14.7113C6.56508 14.7113 6.11482 14.8347 5.70813 15.0817C5.30145 15.3286 4.97464 15.6772 4.72773 16.1274C4.49534 16.5777 4.37914 17.1151 4.37914 17.7396C4.37914 18.3787 4.49534 18.9234 4.72773 19.3736C4.97464 19.8239 5.30145 20.1652 5.70813 20.3976C6.12934 20.63 6.5796 20.7462 7.05891 20.7462ZM19.5364 23.9707C18.6504 23.9707 17.8371 23.8327 17.0963 23.5567C16.3701 23.2807 15.7601 22.8958 15.2662 22.402C14.7724 21.8936 14.4165 21.3127 14.1987 20.6591L17.5974 19.8965C17.6991 20.3177 17.9169 20.6518 18.251 20.8987C18.5996 21.1311 19.0208 21.2473 19.5146 21.2473C19.9939 21.2473 20.3643 21.1529 20.6258 20.9641C20.8872 20.7607 21.0179 20.5211 21.0179 20.2451C21.0179 19.9111 20.8582 19.6641 20.5386 19.5044C20.2191 19.3301 19.7979 19.1848 19.275 19.0686C18.7666 18.9524 18.2292 18.829 17.6628 18.6983C17.0963 18.5675 16.5589 18.3787 16.0505 18.1318C15.5422 17.8704 15.1282 17.5145 14.8087 17.0642C14.4892 16.614 14.3294 16.0257 14.3294 15.2995C14.3294 14.6023 14.5182 13.9705 14.8958 13.4041C15.288 12.8376 15.8472 12.3801 16.5734 12.0315C17.3142 11.6829 18.2147 11.5086 19.275 11.5086C20.161 11.5086 20.938 11.6466 21.6062 11.9226C22.2888 12.1985 22.848 12.5834 23.2838 13.0773C23.734 13.5566 24.0535 14.1303 24.2424 14.7984L20.9961 15.6481C20.909 15.2124 20.7129 14.871 20.4079 14.6241C20.1029 14.3772 19.6962 14.2538 19.1878 14.2538C18.7231 14.2538 18.3745 14.3409 18.1421 14.5152C17.9097 14.6895 17.7935 14.9219 17.7935 15.2124C17.7935 15.5319 17.9533 15.7861 18.2728 15.9749C18.5923 16.1492 19.0063 16.2945 19.5146 16.4106C20.023 16.5268 20.5604 16.6648 21.1269 16.8246C21.6933 16.9698 22.2307 17.1732 22.7391 17.4346C23.2474 17.6961 23.6614 18.0592 23.9809 18.524C24.3005 18.9887 24.4602 19.5915 24.4602 20.3323C24.4602 21.0294 24.2569 21.654 23.8502 22.2059C23.458 22.7579 22.8916 23.1936 22.1508 23.5131C21.4101 23.8181 20.5386 23.9707 19.5364 23.9707ZM30.4317 23.9707C29.0954 23.9707 28.0714 23.6075 27.3597 22.8813C26.648 22.1406 26.2922 21.073 26.2922 19.6787V14.6459H24.3532V11.6611H32.3925V14.6459H29.9742V19.7222C29.9742 20.0708 30.0831 20.3468 30.301 20.5501C30.5334 20.739 30.8093 20.8334 31.1289 20.8334C31.2741 20.8334 31.4048 20.8188 31.521 20.7898C31.6517 20.7462 31.7752 20.6881 31.8914 20.6155L32.8064 23.3171C32.4578 23.5059 32.0875 23.6656 31.6953 23.7964C31.3177 23.9126 30.8965 23.9707 30.4317 23.9707ZM25.3118 12.6415V11.6611C25.6313 11.6611 25.8928 11.5595 26.0961 11.3561C26.2995 11.1528 26.4011 10.8913 26.4011 10.5718V8.69813H29.9742V10.0053C29.9742 10.2087 29.9233 10.4338 29.8216 10.6807C29.72 10.9131 29.5602 11.1237 29.3423 11.3125C29.139 11.4868 28.8921 11.603 28.6016 11.6611L25.3118 12.6415ZM33.5773 23.8181V11.6611H37.2593V23.8181H33.5773ZM36.6928 18.5893L37.2593 14.6023C37.5207 13.6583 37.9782 12.9175 38.6318 12.3801C39.2854 11.8282 40.1206 11.5522 41.1373 11.5522V15.3867C40.9775 15.3576 40.825 15.3358 40.6798 15.3213C40.5346 15.3068 40.3893 15.2995 40.2441 15.2995C39.7067 15.2995 39.2128 15.4302 38.7626 15.6917C38.3123 15.9386 37.9492 16.309 37.6732 16.8028C37.3973 17.2821 37.2593 17.8776 37.2593 18.5893H36.6928ZM49.7758 23.4042V11.6611H53.4359V23.4042C53.4359 24.2321 53.3125 25.0237 53.0656 25.779C52.8187 26.5342 52.4338 27.2096 51.9109 27.8051C51.4025 28.4006 50.7489 28.8727 49.9501 29.2213C49.1512 29.5699 48.1926 29.7441 47.0742 29.7441C46.1011 29.7441 45.2005 29.5844 44.3727 29.2648C43.5593 28.9598 42.8548 28.495 42.2593 27.8705C41.6784 27.2605 41.2426 26.5197 40.9521 25.6482L44.1548 24.5589C44.3872 25.1399 44.7285 25.6192 45.1788 25.9968C45.6435 26.389 46.2245 26.5851 46.9217 26.5851C47.8513 26.5851 48.5557 26.2946 49.035 25.7136C49.5289 25.1471 49.7758 24.3773 49.7758 23.4042ZM50.2115 18.1754C50.197 19.3083 50.0663 20.2379 49.8193 20.9641C49.5869 21.6903 49.2747 22.2568 48.8825 22.6634C48.5049 23.0556 48.0837 23.3316 47.6189 23.4913C47.1541 23.6511 46.682 23.731 46.2027 23.731C45.2732 23.731 44.4453 23.5204 43.719 23.0992C43.0073 22.6634 42.4482 22.0534 42.0415 21.2691C41.6493 20.4702 41.4532 19.5334 41.4532 18.4586V11.6611H45.0916V17.9575C45.0916 18.7999 45.3022 19.4535 45.7234 19.9183C46.1446 20.3831 46.7111 20.6155 47.4228 20.6155C47.9166 20.6155 48.3378 20.492 48.6864 20.2451C49.035 19.9982 49.3037 19.6641 49.4925 19.2429C49.6814 18.8072 49.7758 18.3061 49.7758 17.7396L50.2115 18.1754Z" fill="#ffffff"/>
<path d="M53.8944 11.6616H58.0121L66.4218 23.8186H62.3041L53.8944 11.6616ZM60.7354 19.0473L57.9903 23.8186H54.0033L58.84 16.3239L60.7354 19.0473ZM59.6897 16.1932L62.3476 11.6616H66.3346L61.498 18.9384L59.6897 16.1932Z" fill="#ffffff"/>
<path d="M55.082 15.9879H64.6464V19.0599H55.082V15.9879Z" fill="#ffffff"/>
</svg>
